<?xml version="1.0" standalone="no"?>
<!DOCTYPE svg PUBLIC "-//W3C//DTD SVG 20010904//EN"
 "http://www.w3.org/TR/2001/REC-SVG-20010904/DTD/svg10.dtd">
<svg version="1.0" xmlns="http://www.w3.org/2000/svg"
 width="960.000000pt" height="1088.000000pt" viewBox="0 0 960.000000 1088.000000"
 preserveAspectRatio="xMidYMid meet">

<g transform="translate(0.000000,1088.000000) scale(0.100000,-0.100000)"
fill="#000000" stroke="none">
<path d="M4400 10865 c-7 -8 -16 -15 -21 -15 -5 0 -49 -25 -99 -55 -50 -30
-93 -55 -95 -55 -3 0 -29 -16 -59 -35 -30 -19 -57 -35 -60 -35 -3 0 -38 -21
-77 -46 -39 -25 -101 -61 -137 -80 -36 -20 -91 -50 -121 -68 -156 -94 -212
-126 -217 -126 -3 0 -30 -16 -60 -35 -30 -19 -56 -35 -59 -35 -2 0 -46 -25
-97 -56 -51 -31 -99 -59 -108 -63 -8 -3 -33 -18 -55 -32 -37 -24 -182 -110
-265 -157 -59 -33 -107 -61 -298 -174 -101 -59 -185 -108 -188 -108 -3 0 -29
-15 -57 -33 -110 -71 -137 -87 -141 -87 -3 0 -46 -25 -96 -55 -50 -30 -94 -55
-97 -55 -4 0 -14 -6 -22 -14 -9 -7 -47 -30 -86 -51 -38 -21 -94 -53 -123 -71
-29 -19 -55 -34 -58 -34 -3 0 -30 -16 -60 -35 -30 -19 -57 -35 -60 -35 -3 0
-25 -13 -49 -30 -24 -16 -46 -30 -50 -30 -3 0 -34 -17 -68 -39 -34 -21 -96
-58 -137 -82 -41 -24 -83 -48 -92 -54 -9 -5 -29 -17 -45 -26 -64 -36 -104 -59
-142 -83 -22 -15 -43 -26 -46 -26 -2 0 -28 -15 -57 -34 -29 -18 -84 -50 -123
-71 -38 -21 -130 -76 -203 -122 -73 -46 -135 -83 -138 -83 -3 0 -28 -15 -57
-33 -29 -18 -59 -36 -67 -40 -8 -4 -31 -17 -50 -28 -19 -12 -55 -33 -80 -47
-25 -14 -69 -40 -97 -58 l-53 -34 0 -2649 c0 -1509 4 -2660 9 -2673 7 -20 264
-182 453 -287 20 -11 55 -32 78 -46 23 -15 63 -38 88 -52 61 -34 87 -49 172
-101 39 -24 92 -55 118 -69 26 -14 52 -29 57 -33 6 -4 27 -17 47 -29 103 -57
161 -92 203 -119 11 -6 27 -15 35 -19 8 -3 55 -30 103 -60 49 -29 90 -53 93
-53 2 0 31 -18 63 -40 32 -22 62 -40 66 -40 4 0 19 -8 33 -19 15 -10 47 -29
72 -43 66 -37 104 -59 215 -125 55 -33 121 -72 148 -86 122 -69 143 -81 185
-108 25 -16 49 -29 53 -29 6 0 161 -92 219 -130 8 -6 26 -15 39 -20 13 -6 35
-19 50 -29 14 -10 43 -28 64 -40 20 -11 52 -29 70 -39 17 -11 59 -34 92 -52
33 -19 71 -41 85 -51 14 -9 48 -29 75 -44 101 -57 114 -64 154 -89 22 -15 43
-26 46 -26 3 0 36 -20 75 -45 39 -25 73 -45 76 -45 3 0 29 -15 58 -33 28 -17
61 -37 72 -44 10 -7 42 -24 69 -39 28 -14 57 -32 65 -39 8 -7 40 -26 70 -42
30 -17 102 -58 158 -92 57 -34 118 -70 135 -79 27 -15 241 -141 302 -179 11
-7 27 -15 35 -19 8 -5 38 -23 67 -41 75 -47 155 -93 176 -100 9 -3 17 -9 17
-13 0 -4 8 -11 18 -14 9 -3 26 -12 37 -19 11 -7 53 -32 92 -56 l73 -43 102 58
c56 33 123 71 148 86 25 15 51 31 59 35 8 3 132 77 275 163 144 86 268 159
276 163 19 10 42 24 105 63 56 34 179 109 228 138 18 10 112 66 210 125 98 58
197 117 220 130 23 13 60 36 82 50 22 15 47 30 55 34 8 4 27 15 42 25 57 36
492 297 507 304 9 4 51 29 93 55 42 26 177 108 300 182 123 73 250 150 283
170 33 20 67 40 75 44 8 4 29 16 45 27 17 11 37 23 45 27 8 3 183 107 388 230
205 123 376 223 379 223 4 0 14 6 22 14 9 7 39 26 66 41 140 77 608 352 668
392 l37 26 0 2671 c0 2664 0 2672 -20 2689 -11 9 -22 17 -24 17 -3 0 -40 22
-83 48 -43 27 -103 62 -133 79 -30 17 -84 48 -120 70 -36 22 -85 51 -110 65
-83 46 -114 65 -238 142 -68 42 -126 76 -129 76 -3 0 -17 8 -31 19 -15 10 -47
29 -72 43 -25 14 -161 93 -303 177 -142 83 -259 151 -261 151 -2 0 -33 18 -67
40 -35 22 -71 43 -79 47 -19 9 -131 76 -195 118 -27 17 -73 45 -102 61 -28 16
-89 51 -135 78 -46 26 -108 62 -138 79 -30 17 -69 41 -86 54 -17 13 -34 23
-37 23 -4 0 -28 13 -54 29 -54 32 -168 98 -388 225 -82 48 -157 91 -165 96
-85 50 -384 224 -450 263 -47 27 -121 71 -165 97 -44 26 -96 56 -115 67 -19
11 -87 51 -150 90 -63 38 -196 116 -295 173 -99 57 -187 109 -196 117 -12 10
-92 13 -391 13 -322 0 -377 -2 -388 -15z m500 -172 c52 -31 97 -59 100 -62 3
-4 16 -12 30 -19 14 -7 39 -21 55 -32 17 -11 37 -23 45 -27 8 -4 82 -47 163
-95 82 -48 150 -88 153 -88 2 0 33 -17 67 -38 34 -22 85 -52 112 -68 28 -16
57 -33 67 -39 9 -5 44 -25 78 -43 34 -18 88 -49 119 -69 31 -20 71 -44 89 -55
17 -10 49 -27 69 -39 53 -30 285 -168 303 -179 8 -6 29 -17 45 -25 17 -9 37
-20 45 -25 21 -14 292 -170 295 -170 1 0 51 -29 110 -65 59 -36 108 -65 110
-65 2 0 101 -58 220 -130 120 -71 219 -130 221 -130 3 0 33 -18 68 -40 35 -22
66 -40 69 -40 4 0 37 -19 74 -43 38 -24 88 -55 113 -69 25 -14 61 -35 80 -46
19 -12 44 -26 55 -32 11 -5 28 -16 38 -23 17 -14 17 -110 17 -1951 0 -1913 0
-1936 19 -1936 11 0 22 4 25 9 3 5 53 37 111 71 58 35 110 69 115 75 7 8 10
625 10 1769 0 1470 2 1758 14 1762 14 5 34 -5 174 -87 45 -27 85 -49 88 -49 7
0 88 -54 95 -63 3 -4 5 -782 5 -1728 -1 -1709 -1 -1721 -21 -1735 -11 -8 -60
-39 -110 -68 -222 -131 -356 -211 -428 -257 -43 -27 -81 -49 -83 -49 -3 0 -25
-13 -49 -30 -24 -17 -45 -30 -48 -30 -2 0 -57 -32 -123 -72 -65 -39 -128 -76
-139 -82 -39 -22 -372 -221 -495 -297 -69 -42 -145 -87 -169 -100 -24 -13 -51
-29 -60 -34 -29 -18 -365 -219 -386 -231 -11 -6 -85 -50 -165 -99 -80 -48
-158 -95 -175 -105 -16 -9 -93 -56 -170 -104 -77 -47 -146 -89 -154 -93 -8 -4
-76 -42 -150 -86 -75 -44 -145 -85 -156 -91 -26 -15 -225 -134 -245 -146 -99
-62 -292 -180 -295 -180 -3 0 -34 -18 -70 -40 -36 -22 -72 -40 -80 -40 -8 0
-62 29 -120 65 -58 36 -140 85 -183 108 -42 24 -209 122 -369 218 -161 96
-305 181 -320 189 -93 52 -411 239 -809 476 -188 112 -348 204 -357 204 -8 0
-18 -7 -21 -16 -8 -21 -8 -268 0 -289 6 -14 105 -85 119 -85 3 0 35 -19 72
-43 38 -24 75 -46 83 -50 8 -4 33 -18 55 -32 22 -14 47 -28 55 -32 8 -4 58
-32 110 -63 52 -31 102 -59 110 -63 8 -4 44 -25 80 -48 36 -23 90 -55 120 -72
30 -16 102 -59 159 -94 57 -34 105 -63 108 -63 2 0 27 -15 56 -33 29 -18 66
-39 82 -47 17 -8 56 -31 88 -52 32 -21 63 -38 68 -38 5 0 9 -4 9 -10 0 -5 5
-10 10 -10 6 0 34 -15 63 -33 29 -18 59 -36 67 -40 8 -4 24 -13 34 -19 77 -50
148 -92 281 -166 44 -24 98 -56 120 -71 23 -15 55 -34 73 -42 18 -7 32 -17 32
-21 0 -5 4 -8 10 -8 5 0 39 -18 75 -40 36 -22 70 -40 75 -40 6 0 10 -4 10 -10
0 -5 5 -10 11 -10 6 0 45 -20 86 -45 40 -25 76 -45 78 -45 2 0 46 -26 97 -58
51 -32 170 -103 263 -157 94 -54 172 -103 173 -107 2 -4 7 -8 12 -8 5 0 54
-27 110 -60 56 -33 103 -60 106 -60 2 0 28 -16 58 -35 30 -19 57 -35 60 -35 3
0 30 -16 60 -35 30 -19 57 -35 60 -35 3 0 47 -26 98 -58 51 -32 100 -61 108
-65 8 -4 29 -15 45 -26 17 -10 46 -27 65 -38 83 -47 140 -85 140 -94 0 -5 -17
-19 -37 -32 -80 -50 -312 -187 -318 -187 -4 0 -112 62 -225 131 -183 110 -384
229 -387 229 -2 0 -24 14 -48 30 -24 17 -47 30 -50 30 -4 0 -19 8 -33 19 -15
10 -47 29 -72 43 -78 43 -112 63 -217 127 -56 33 -105 61 -108 61 -4 0 -26 14
-50 30 -24 17 -46 30 -49 30 -5 0 -178 100 -376 218 -41 24 -88 52 -105 62
-16 9 -109 64 -205 122 -96 58 -195 116 -220 130 -152 86 -568 329 -843 492
-43 25 -80 46 -83 46 -2 0 -33 18 -69 40 -36 22 -68 40 -70 40 -3 0 -23 11
-44 25 -75 50 -206 122 -213 118 -5 -2 -8 -73 -8 -158 l0 -154 59 -41 c33 -22
63 -40 67 -40 3 0 26 -13 51 -30 24 -16 46 -30 50 -30 3 0 25 -13 50 -30 24
-16 48 -30 53 -30 5 0 15 -6 22 -12 7 -7 36 -24 63 -37 28 -14 64 -35 82 -48
17 -13 34 -23 37 -23 3 0 30 -16 60 -35 30 -19 57 -35 60 -35 3 0 58 -31 122
-70 65 -38 119 -70 121 -70 2 0 22 -11 44 -26 38 -24 57 -35 154 -89 22 -13
87 -51 145 -85 58 -35 119 -70 135 -80 40 -23 351 -207 396 -234 19 -11 82
-48 138 -81 56 -33 115 -68 129 -77 15 -10 36 -22 47 -28 11 -5 45 -24 76 -42
30 -18 87 -51 125 -72 38 -22 71 -43 74 -47 3 -3 28 -18 55 -33 28 -15 57 -31
65 -36 37 -24 221 -130 224 -130 2 0 57 -32 122 -71 66 -40 135 -81 154 -91
58 -33 155 -92 160 -99 3 -3 13 -8 23 -12 28 -10 20 -33 -23 -61 -22 -14 -42
-26 -44 -26 -2 0 -42 -23 -88 -52 -46 -28 -106 -64 -134 -79 l-51 -28 -174
104 c-96 58 -181 109 -189 115 -8 5 -40 24 -70 41 -30 18 -104 61 -165 97 -60
36 -130 76 -155 90 -25 14 -63 37 -85 51 -52 33 -77 48 -161 95 -38 21 -132
76 -209 121 -77 46 -162 95 -190 110 -27 16 -81 47 -118 71 -37 24 -70 44 -73
44 -3 0 -25 14 -49 30 -24 17 -46 30 -48 30 -3 0 -67 37 -143 83 -77 46 -179
107 -229 136 -49 29 -97 56 -105 62 -8 5 -85 49 -170 97 -85 49 -185 107 -223
130 -37 23 -70 42 -72 42 -3 0 -41 22 -85 50 -44 27 -82 50 -85 50 -2 0 -44
24 -92 53 -48 29 -108 63 -133 76 -25 12 -56 30 -70 41 l-24 18 -1 1961 c-1
1078 -4 1963 -7 1966 -3 3 -68 -32 -144 -77 l-139 -83 -3 -1959 c-1 -1483 1
-1962 10 -1973 10 -12 51 -39 177 -113 125 -74 277 -162 326 -190 109 -60 128
-71 182 -106 29 -19 55 -34 57 -34 7 0 332 -193 347 -206 8 -8 18 -14 22 -14
3 0 68 -37 144 -81 76 -45 158 -93 183 -107 25 -14 57 -33 72 -43 14 -11 29
-19 33 -19 3 0 29 -15 58 -33 29 -18 59 -36 67 -41 8 -4 24 -12 35 -19 11 -7
38 -23 60 -35 22 -12 54 -31 70 -42 17 -11 39 -24 50 -30 11 -6 38 -21 60 -34
127 -74 228 -134 375 -221 91 -53 190 -111 220 -127 30 -17 62 -36 71 -44 8
-8 19 -14 24 -14 4 0 41 -20 82 -45 40 -25 76 -45 79 -45 3 0 37 -20 75 -45
38 -25 72 -45 74 -45 15 0 155 -95 152 -103 -3 -11 -158 -110 -247 -159 -30
-17 -62 -37 -71 -44 -24 -21 -33 -18 -120 36 -44 28 -83 50 -85 50 -3 0 -50
27 -104 60 -55 33 -113 68 -129 78 -16 9 -103 60 -193 113 -147 87 -200 118
-263 153 -11 6 -39 24 -62 39 -24 15 -46 27 -50 27 -5 0 -32 16 -60 35 -29 19
-54 35 -56 35 -3 0 -56 30 -118 66 -63 37 -134 78 -159 92 -41 23 -295 171
-330 192 -8 5 -37 22 -65 38 -27 16 -173 102 -323 190 -150 89 -275 162 -278
162 -3 0 -85 49 -184 110 -8 5 -40 24 -70 41 -87 51 -276 162 -315 186 -11 7
-60 35 -110 64 -49 28 -94 57 -98 63 -4 6 -7 878 -5 1939 2 1060 0 1927 -4
1927 -12 0 -263 -152 -270 -164 -4 -6 -8 -800 -8 -1763 0 -1540 -2 -1753 -15
-1753 -17 0 -83 35 -212 114 -51 31 -95 56 -99 56 -3 0 -19 9 -35 21 l-29 20
0 1718 0 1718 38 25 c20 14 71 45 112 69 41 24 84 49 95 56 11 7 27 15 35 19
8 4 26 15 40 24 14 10 57 34 95 55 39 21 99 57 135 80 52 33 405 246 567 341
17 11 66 40 110 65 43 26 101 59 128 74 28 16 73 42 100 60 28 17 57 34 65 38
8 4 29 16 45 26 117 72 348 211 351 211 2 0 36 21 75 46 40 25 79 48 88 52 9
3 51 27 93 54 43 26 80 48 82 48 2 0 51 29 110 65 58 36 108 65 111 65 2 0 24
14 48 30 25 17 48 30 51 30 6 0 233 140 278 171 15 10 30 19 33 19 3 0 31 16
61 35 30 19 57 35 59 35 3 0 24 12 46 26 36 22 89 53 154 89 11 6 39 23 63 38
23 15 59 37 80 48 20 11 44 24 52 29 8 5 51 31 95 56 44 26 103 62 130 79 28
18 69 43 93 55 23 12 45 26 48 31 11 19 46 8 121 -38 112 -69 116 -71 133 -79
8 -4 45 -27 81 -50 37 -23 84 -52 105 -63 22 -12 57 -32 79 -46 22 -14 47 -28
55 -31 8 -4 29 -17 45 -28 17 -12 55 -35 85 -51 30 -15 113 -64 183 -107 71
-43 130 -78 132 -78 3 0 29 -16 59 -35 30 -19 58 -35 62 -35 4 0 22 -11 40
-25 18 -14 35 -25 38 -25 3 0 37 -20 76 -45 39 -25 73 -45 76 -45 3 0 30 -16
60 -35 30 -19 57 -35 60 -35 3 0 31 -17 62 -37 31 -21 68 -43 82 -51 50 -27
185 -106 190 -112 7 -7 41 -28 65 -40 11 -5 67 -39 125 -75 117 -73 161 -96
172 -89 5 3 8 78 8 167 l0 162 -35 23 c-19 12 -37 22 -39 22 -3 0 -80 46 -173
101 -92 56 -177 105 -188 110 -11 5 -33 18 -50 28 -57 34 -550 329 -585 349
-124 71 -169 96 -283 165 -71 42 -130 77 -132 77 -3 0 -64 36 -136 80 -73 44
-133 80 -135 80 -5 0 -98 56 -161 97 -28 18 -54 33 -58 33 -3 0 -25 13 -48 28
-34 23 -181 110 -485 287 -76 45 -136 80 -262 155 -80 48 -194 115 -253 151
-60 35 -147 88 -195 117 -48 29 -94 55 -102 59 -8 3 -39 21 -68 40 -29 18 -54
33 -56 33 -3 0 -51 28 -108 62 -285 169 -296 178 -258 199 8 5 64 38 123 74
60 36 111 65 113 65 3 0 20 11 37 24 58 43 64 42 196 -39 67 -41 127 -75 132
-75 5 0 9 -4 9 -9 0 -5 8 -11 18 -15 19 -6 40 -19 89 -53 17 -13 34 -23 37
-23 3 0 37 -20 76 -45 39 -25 72 -45 75 -45 3 0 41 -22 85 -50 44 -27 82 -50
84 -50 2 0 130 -75 283 -166 153 -92 298 -178 323 -192 25 -14 59 -33 76 -43
17 -9 68 -40 114 -69 84 -53 97 -60 205 -120 33 -18 78 -45 100 -60 22 -15 47
-30 55 -33 15 -7 30 -16 80 -48 14 -9 57 -33 95 -54 39 -21 76 -43 84 -49 16
-12 34 -23 92 -55 24 -13 55 -31 69 -41 32 -22 220 -134 240 -143 8 -4 29 -16
45 -27 17 -11 37 -23 45 -27 8 -3 50 -28 93 -55 43 -26 83 -48 88 -48 5 0 9
-4 9 -9 0 -5 6 -11 13 -13 14 -3 124 -66 420 -240 100 -60 187 -106 192 -105
12 4 19 306 7 323 -7 11 -71 49 -309 185 -21 12 -50 29 -64 38 -15 9 -91 54
-170 100 -79 46 -220 129 -314 185 -93 55 -182 107 -196 116 -60 35 -286 170
-456 271 -100 60 -183 109 -186 109 -5 0 -243 139 -343 200 -38 24 -89 54
-114 67 -25 14 -68 41 -97 59 -28 19 -54 34 -58 34 -3 0 -21 11 -39 25 -18 14
-36 25 -40 25 -3 0 -23 11 -44 24 -38 24 -447 266 -624 370 -54 32 -98 63 -98
69 0 11 101 87 115 87 2 0 54 29 115 65 61 36 118 65 125 65 8 0 45 -19 82
-42 38 -23 77 -46 88 -52 11 -6 63 -37 115 -69 154 -94 260 -157 265 -157 2 0
63 -36 135 -80 72 -44 133 -80 136 -80 6 0 108 -63 114 -70 3 -4 12 -9 20 -13
8 -4 33 -18 55 -31 22 -14 63 -37 90 -51 28 -15 57 -33 66 -41 8 -8 19 -14 23
-14 4 0 20 -8 34 -19 15 -10 43 -27 62 -38 19 -10 73 -41 118 -68 46 -28 103
-61 125 -73 23 -13 65 -38 92 -56 28 -18 82 -51 120 -73 39 -23 126 -75 195
-116 69 -41 139 -82 155 -91 17 -9 44 -25 60 -36 17 -11 39 -24 50 -30 11 -5
94 -55 185 -111 91 -56 181 -111 200 -121 19 -11 64 -37 100 -58 36 -21 81
-47 100 -58 148 -84 268 -156 281 -168 14 -12 15 -206 14 -1975 0 -1078 3
-1963 8 -1966 7 -4 223 125 270 161 16 12 17 118 17 1974 l0 1961 -90 55 c-49
31 -92 56 -94 56 -2 0 -63 36 -135 80 -73 44 -134 80 -136 80 -3 0 -28 15 -57
33 -29 19 -73 45 -98 59 -39 22 -157 92 -200 118 -45 27 -180 107 -208 123
-18 10 -70 42 -115 71 -45 29 -109 68 -142 86 -33 18 -79 46 -103 61 -24 16
-46 29 -49 29 -4 0 -14 6 -22 14 -9 7 -38 26 -66 41 -102 56 -774 449 -865
505 -35 22 -207 124 -225 134 -30 17 -363 214 -417 248 -27 17 -48 35 -48 42
1 11 83 66 101 66 5 0 9 5 9 10 0 6 4 10 9 10 5 0 47 23 93 50 46 28 90 55 98
60 27 16 43 11 140 -47z m-2047 -1110 c18 -10 34 -21 37 -24 3 -3 17 -12 31
-20 80 -42 251 -143 262 -153 7 -7 32 -24 57 -38 25 -14 63 -35 85 -48 22 -12
81 -47 130 -77 50 -30 97 -59 105 -64 14 -8 183 -107 260 -152 19 -11 48 -27
63 -36 16 -9 36 -21 45 -26 63 -38 190 -113 202 -119 20 -9 41 -22 132 -78 42
-27 81 -48 87 -48 6 0 11 -3 11 -7 0 -5 25 -21 55 -38 82 -44 80 -49 -75 -136
-36 -20 -104 -60 -152 -90 -47 -30 -108 -66 -135 -81 -26 -15 -66 -38 -88 -52
-327 -197 -659 -396 -662 -396 -2 0 -29 -16 -59 -35 -30 -19 -57 -35 -60 -35
-3 0 -37 -20 -75 -45 -38 -25 -71 -45 -73 -45 -2 0 -59 -34 -126 -75 -67 -41
-124 -75 -126 -75 -2 0 -35 -20 -74 -45 -39 -25 -72 -45 -74 -45 -1 0 -74 -43
-161 -95 -87 -52 -160 -95 -162 -95 -1 0 -67 -39 -145 -86 -79 -48 -213 -128
-298 -179 -85 -50 -174 -103 -197 -118 -24 -15 -45 -27 -48 -27 -2 0 -29 -16
-59 -35 -30 -19 -58 -35 -61 -35 -4 0 -26 -13 -50 -30 -24 -16 -46 -30 -49
-30 -2 0 -91 -52 -198 -117 -106 -64 -206 -124 -223 -133 -99 -57 -253 -151
-267 -164 -17 -15 -18 -110 -18 -1726 0 -1236 -3 -1710 -11 -1710 -13 0 -167
90 -286 166 l-83 54 0 1710 0 1709 148 87 c150 88 310 185 360 216 15 10 34
21 42 25 8 3 26 14 40 23 14 10 52 32 85 50 33 18 74 43 92 56 17 13 34 24 37
24 3 0 45 24 93 54 263 161 305 186 311 186 4 0 54 29 111 65 57 36 105 65
107 65 2 0 180 104 254 150 8 5 101 60 205 123 105 63 231 139 280 169 50 30
97 57 105 61 17 8 37 20 207 122 64 39 122 72 128 74 5 2 24 15 41 28 17 12
34 23 38 23 4 0 33 17 64 37 31 20 66 41 77 47 24 13 155 93 193 118 15 10 34
21 42 25 16 7 185 110 288 176 34 21 62 45 62 52 0 12 -177 147 -225 173 -21
10 -43 -2 -369 -205 -47 -29 -88 -53 -91 -53 -4 0 -38 -20 -76 -45 -38 -25
-72 -45 -75 -45 -3 0 -25 -13 -49 -30 -24 -16 -46 -30 -48 -30 -2 0 -63 -36
-134 -79 -72 -44 -150 -90 -173 -103 -48 -26 -48 -26 -150 -89 -41 -25 -142
-86 -225 -134 -218 -129 -438 -261 -530 -318 -67 -42 -488 -292 -604 -359 -19
-11 -59 -35 -88 -54 -29 -19 -58 -34 -63 -34 -6 0 -10 -4 -10 -9 0 -5 -10 -13
-23 -18 -13 -4 -112 -62 -220 -128 -238 -145 -239 -145 -249 -139 -4 3 -8 99
-8 215 l0 209 55 35 c30 19 56 35 59 35 3 0 22 12 43 26 21 14 47 30 58 35 11
5 34 18 50 29 17 11 39 24 50 30 11 5 49 29 85 51 98 63 417 257 480 292 30
17 69 39 85 49 17 10 37 21 45 25 8 3 50 28 92 55 43 26 80 48 84 48 3 0 20
10 37 23 36 25 39 26 152 93 44 26 162 96 263 156 101 59 185 108 188 108 2 0
23 12 47 27 58 38 79 51 97 60 8 4 67 38 130 76 167 101 473 282 490 290 8 4
24 13 34 19 11 7 43 28 72 45 58 36 66 44 56 59 -16 23 -225 164 -243 164 -14
0 -125 -63 -216 -122 -23 -16 -44 -28 -46 -28 -3 0 -56 -31 -119 -68 -121 -73
-229 -136 -318 -185 -30 -17 -131 -77 -225 -135 -93 -57 -177 -107 -185 -110
-8 -3 -45 -25 -83 -49 -37 -24 -69 -43 -72 -43 -3 0 -47 -25 -98 -56 -148 -90
-188 -114 -192 -114 -2 0 -52 -30 -112 -66 -59 -37 -124 -75 -143 -86 -19 -11
-39 -24 -45 -28 -5 -4 -30 -19 -55 -32 -25 -14 -116 -69 -204 -122 -87 -53
-160 -96 -161 -96 -2 0 -52 -29 -111 -65 -59 -35 -111 -62 -115 -59 -5 3 -9
101 -9 217 l0 212 158 93 c86 50 168 99 182 107 133 79 329 193 340 198 8 4
29 16 45 27 17 11 37 23 45 27 8 4 35 21 60 37 25 17 65 42 90 55 25 14 110
63 190 109 80 47 161 94 180 105 19 10 94 55 167 98 128 76 159 94 253 147 25
14 62 36 82 49 21 12 40 23 43 23 3 0 47 26 98 58 91 58 136 84 232 138 107
59 121 67 145 83 48 31 65 41 85 50 11 5 36 21 55 35 42 30 44 30 83 9z m6225
-1348 l152 -90 0 -1718 0 -1717 -55 -35 c-30 -19 -57 -35 -60 -35 -4 0 -21
-11 -39 -25 -18 -14 -37 -25 -41 -25 -5 0 -16 -6 -24 -14 -9 -8 -34 -24 -56
-36 -123 -69 -203 -115 -225 -130 -14 -10 -42 -27 -63 -39 -48 -27 -273 -164
-397 -242 -52 -33 -105 -64 -116 -69 -12 -4 -81 -45 -153 -89 -72 -45 -133
-81 -136 -81 -2 0 -29 -15 -58 -34 -29 -19 -69 -43 -88 -54 -19 -11 -77 -46
-129 -77 -52 -32 -108 -66 -125 -75 -16 -10 -70 -42 -120 -72 -49 -30 -173
-105 -275 -165 -102 -60 -234 -140 -294 -176 -60 -37 -110 -67 -112 -67 -1 0
-56 -33 -121 -73 -163 -101 -273 -167 -278 -167 -3 0 -29 -15 -58 -34 -29 -19
-71 -45 -93 -58 -131 -75 -284 -171 -284 -176 0 -4 4 -12 8 -17 11 -17 241
-155 257 -155 8 0 76 37 152 83 76 45 155 91 176 102 20 11 37 23 37 27 0 5 4
8 8 8 5 0 135 77 291 170 155 94 284 170 287 170 2 0 35 20 74 45 39 25 72 45
75 45 2 0 53 31 113 69 170 107 516 315 674 406 10 6 44 26 75 46 32 20 252
152 488 293 507 304 626 376 648 394 33 28 37 4 37 -207 l0 -208 -127 -78
c-71 -43 -155 -93 -188 -112 -33 -19 -67 -41 -75 -48 -13 -11 -154 -96 -215
-130 -22 -12 -166 -97 -223 -133 -20 -12 -44 -25 -52 -29 -8 -3 -34 -19 -57
-35 -23 -15 -44 -28 -48 -28 -3 0 -47 -26 -98 -58 -127 -81 -327 -202 -333
-202 -3 0 -25 -13 -49 -30 -24 -16 -46 -30 -48 -30 -6 0 -386 -230 -485 -293
-40 -26 -74 -47 -77 -47 -2 0 -102 -59 -220 -130 -119 -72 -218 -130 -220
-130 -2 0 -26 -15 -54 -33 -27 -17 -75 -48 -105 -66 -31 -19 -56 -38 -56 -42
0 -3 19 -19 43 -35 23 -16 44 -31 47 -34 14 -15 160 -100 172 -100 12 0 165
91 295 176 28 19 54 34 57 34 4 0 43 22 87 50 44 27 83 50 85 50 2 0 90 52
195 115 105 63 193 115 195 115 2 0 27 15 56 34 53 33 396 243 453 276 17 10
68 40 115 67 47 27 103 61 125 75 22 13 47 28 55 32 27 13 310 184 475 286 61
38 113 69 117 70 4 0 37 20 74 45 36 25 69 45 75 45 5 0 9 -91 9 -223 l0 -224
-65 -41 c-35 -23 -93 -57 -127 -75 -35 -19 -89 -50 -120 -70 -31 -21 -61 -37
-67 -37 -5 0 -11 -3 -13 -7 -3 -8 -84 -63 -92 -63 -3 0 -119 -68 -258 -151
-139 -84 -266 -159 -283 -169 -16 -10 -66 -39 -110 -65 -44 -26 -100 -59 -125
-73 -61 -34 -209 -123 -295 -178 -38 -25 -77 -48 -85 -51 -8 -4 -38 -22 -67
-40 -29 -18 -54 -33 -56 -33 -2 0 -75 -43 -162 -95 -87 -52 -159 -95 -160 -95
-2 0 -84 -49 -185 -110 -100 -60 -184 -110 -186 -110 -3 0 -69 37 -147 83 -78
46 -149 86 -157 90 -8 5 -24 13 -35 20 -12 7 -54 32 -95 56 -41 24 -127 76
-190 114 -63 39 -135 81 -160 95 -25 14 -72 42 -105 62 -33 20 -87 51 -120 70
-33 18 -96 55 -140 82 -44 27 -177 107 -295 177 -118 69 -216 134 -218 142 -2
12 69 59 250 167 139 82 271 160 292 172 22 12 65 38 95 57 56 36 87 54 171
101 25 13 52 31 61 38 8 8 18 14 22 14 3 0 37 19 74 42 38 24 77 48 88 55 43
26 331 199 347 208 10 6 56 34 103 63 48 28 88 52 91 52 2 0 34 19 71 43 38
24 75 46 83 50 8 4 29 15 45 26 118 72 277 168 315 189 90 50 445 266 484 294
21 15 42 28 47 28 4 0 82 45 173 100 91 55 168 100 171 100 2 0 28 15 57 33
29 19 60 37 68 40 8 4 31 17 50 28 19 12 150 90 290 175 140 84 263 159 273
166 17 13 18 94 17 1729 0 943 3 1718 6 1722 8 8 34 -6 222 -118z"/>
<path d="M4565 8016 c-115 -67 -238 -142 -272 -164 -34 -23 -64 -42 -67 -42
-3 0 -48 -27 -101 -60 -53 -33 -98 -60 -99 -60 -2 0 -51 -29 -110 -65 -58 -36
-109 -65 -112 -65 -3 0 -25 -13 -49 -30 -24 -16 -46 -30 -49 -30 -3 0 -65 -36
-137 -80 -73 -44 -133 -80 -135 -80 -2 0 -95 -55 -184 -110 -8 -5 -51 -30 -95
-56 -44 -26 -101 -60 -126 -76 -25 -15 -51 -28 -57 -28 -7 0 -12 -3 -12 -8 0
-4 -17 -16 -37 -27 -62 -33 -138 -79 -141 -87 -2 -5 -8 -8 -12 -8 -5 0 -29
-13 -53 -30 -25 -16 -49 -30 -54 -30 -5 0 -19 -10 -31 -23 l-22 -23 0 -1198 0
-1198 29 -26 c16 -15 46 -36 67 -47 21 -11 86 -49 144 -84 99 -60 225 -134
315 -186 105 -59 301 -175 310 -182 6 -4 30 -19 55 -32 25 -13 52 -29 60 -36
8 -7 20 -14 25 -16 11 -4 163 -95 203 -121 15 -10 34 -21 42 -25 8 -4 52 -31
97 -60 46 -29 85 -53 88 -53 3 0 62 -34 133 -76 70 -42 147 -88 172 -102 25
-14 57 -33 72 -43 14 -11 29 -19 32 -19 4 0 78 -43 165 -95 87 -52 166 -95
175 -95 22 0 67 23 138 71 31 22 59 39 63 39 3 0 42 23 87 51 44 28 97 60 117
71 20 11 78 46 129 77 51 31 101 61 110 66 10 6 48 29 84 53 37 23 70 42 72
42 3 0 37 20 75 45 38 25 72 45 75 45 3 0 56 30 118 67 62 37 122 72 133 78
16 9 126 74 195 115 139 84 381 228 400 238 14 7 102 59 195 115 l170 102 3
1200 c1 660 0 1209 -2 1220 -3 12 -25 32 -48 45 -24 13 -72 42 -108 65 -36 23
-90 55 -120 72 -30 16 -87 51 -127 76 -39 26 -74 47 -76 47 -3 0 -41 21 -84
47 -43 25 -87 51 -98 57 -11 6 -54 32 -95 57 -41 25 -106 64 -145 86 -38 22
-171 102 -295 178 -124 76 -261 160 -305 186 -165 98 -205 123 -419 254 -121
74 -229 135 -240 135 -12 0 -115 -56 -231 -124z m354 -278 c127 -81 149 -94
171 -104 13 -7 50 -29 166 -101 18 -12 120 -72 173 -103 14 -8 81 -49 149 -90
68 -41 145 -87 171 -101 26 -14 85 -51 132 -81 46 -30 107 -68 136 -84 80 -45
365 -214 395 -235 15 -11 30 -19 34 -19 4 0 15 -6 23 -14 9 -7 48 -31 86 -52
39 -22 82 -47 95 -56 l24 -18 1 -1040 c1 -1037 1 -1040 -19 -1059 -12 -11 -40
-30 -64 -43 -56 -30 -60 -32 -171 -102 -90 -55 -134 -82 -191 -113 -14 -8 -54
-32 -90 -55 -36 -23 -83 -51 -105 -63 -86 -47 -121 -68 -147 -86 -14 -11 -29
-19 -33 -19 -4 0 -29 -16 -55 -35 -26 -19 -51 -35 -55 -35 -3 0 -25 -13 -48
-29 -23 -15 -62 -39 -87 -53 -25 -14 -116 -69 -204 -122 -87 -53 -160 -96
-162 -96 -3 0 -90 -52 -184 -110 -8 -5 -40 -24 -70 -41 -30 -18 -81 -50 -112
-71 -32 -21 -64 -41 -72 -44 -8 -3 -36 9 -61 26 -48 33 -344 210 -351 210 -2
0 -28 16 -58 35 -30 19 -57 35 -60 35 -3 0 -37 20 -76 45 -39 25 -72 45 -74
45 -1 0 -44 25 -94 55 -50 30 -95 55 -98 55 -4 0 -15 6 -23 14 -9 7 -43 28
-76 46 -109 60 -130 72 -180 105 -47 30 -307 187 -350 211 -47 26 -266 156
-332 198 l-73 45 0 1039 c0 815 3 1042 13 1054 6 9 44 34 82 57 39 22 77 46
85 51 8 6 54 34 102 63 318 190 497 296 542 321 28 16 80 48 116 71 36 23 112
70 170 104 58 34 112 66 120 71 45 27 450 271 480 288 116 69 176 102 184 102
5 0 61 -33 125 -72z"/>
<path d="M4675 6564 c-150 -29 -260 -99 -361 -229 -67 -86 -103 -190 -110
-315 -10 -170 47 -310 177 -439 l72 -70 -12 -48 c-21 -81 -39 -155 -61 -238
-23 -85 -35 -134 -71 -280 -12 -49 -28 -111 -36 -137 -9 -26 -12 -59 -9 -73
l6 -25 523 2 c597 3 544 -7 509 102 -10 33 -29 97 -41 141 -13 44 -27 95 -33
114 -6 19 -22 78 -35 130 -13 53 -35 139 -49 191 -13 52 -24 102 -24 111 0 9
27 38 60 64 244 196 279 527 83 785 -101 132 -309 233 -473 229 -25 -1 -76 -7
-115 -15z"/>
</g>
</svg>
