<?xml version="1.0" standalone="no"?>
<!DOCTYPE svg PUBLIC "-//W3C//DTD SVG 20010904//EN"
 "http://www.w3.org/TR/2001/REC-SVG-20010904/DTD/svg10.dtd">
<svg version="1.0" xmlns="http://www.w3.org/2000/svg"
 width="209.000000pt" height="240.000000pt" viewBox="0 0 209.000000 240.000000"
 preserveAspectRatio="xMidYMid meet">

<g transform="translate(0.000000,240.000000) scale(0.100000,-0.100000)"
fill="#000000" stroke="none">
<path d="M855 2278 c-93 -55 -312 -184 -485 -286 -173 -101 -324 -191 -336
-198 -21 -13 -21 -14 -22 -594 l-2 -581 43 -25 c23 -14 110 -65 192 -113 83
-48 293 -172 469 -275 175 -103 324 -190 331 -192 7 -3 219 118 471 269 253
150 483 286 512 302 l52 28 -2 586 -3 585 -505 297 c-278 164 -514 298 -525
298 -11 -1 -96 -46 -190 -101z m535 -166 l335 -197 3 -422 2 -422 30 17 30 17
0 383 c0 210 2 382 4 382 3 0 21 -9 40 -21 l36 -21 0 -374 0 -373 -410 -246
-410 -245 -157 93 c-215 128 -300 177 -307 177 -3 0 -6 -15 -6 -34 0 -31 5
-37 68 -73 297 -175 694 -410 726 -430 l38 -25 -37 -22 -37 -23 -187 110
c-337 198 -560 327 -565 327 -3 0 -6 -15 -6 -33 0 -34 1 -34 346 -237 l346
-203 -23 -18 c-13 -10 -31 -21 -40 -24 -9 -3 -151 74 -352 192 l-337 196 0
424 c0 454 1 447 -49 406 -21 -18 -21 -20 -19 -442 l3 -425 96 -55 c366 -214
569 -335 569 -341 0 -5 -15 -17 -34 -28 l-34 -20 -338 198 -339 198 -3 421
c-1 232 -6 421 -10 421 -4 0 -18 -7 -30 -16 l-22 -15 0 -385 c0 -211 -2 -384
-5 -384 -3 0 -23 11 -45 25 l-40 25 2 373 3 372 320 192 c176 106 361 217 411
246 l91 54 209 -124 c115 -68 221 -131 237 -139 l27 -15 0 38 c0 35 -4 40 -52
67 -140 79 -773 457 -775 464 -2 4 14 16 34 28 l37 21 125 -77 c93 -57 545
-323 624 -367 4 -2 7 13 7 34 0 38 -1 39 -103 97 -56 32 -212 124 -346 203
l-243 145 40 24 40 24 238 -143 c132 -79 282 -168 334 -198 l95 -55 3 -427 c1
-235 5 -427 8 -427 3 0 19 9 34 20 l29 20 0 423 1 422 -102 60 c-112 64 -571
336 -576 340 -4 4 61 43 73 44 6 0 161 -89 345 -197z m-591 -158 c97 -59 177
-107 179 -109 1 -1 -182 -112 -408 -246 l-410 -244 0 -372 c0 -205 -2 -373 -4
-373 -3 0 -21 9 -41 21 l-35 21 2 376 3 376 363 217 c199 119 365 219 368 221
3 3 -7 15 -23 25 l-28 20 -311 -186 c-172 -102 -326 -194 -343 -204 l-31 -18
0 48 c0 46 2 49 43 72 138 78 547 325 547 331 0 4 -11 15 -24 24 -24 15 -31
11 -293 -143 l-268 -159 -3 46 c-2 30 1 48 10 53 7 4 126 75 263 157 138 83
254 150 259 151 4 1 88 -47 185 -105z m1181 -189 c25 -13 29 -21 35 -77 3 -35
5 -204 3 -377 l-3 -313 -365 -219 c-201 -120 -366 -223 -368 -228 -2 -6 9 -16
25 -24 27 -14 34 -11 366 189 186 112 340 204 342 204 3 0 5 -20 5 -45 l0 -44
-300 -178 c-164 -98 -299 -180 -300 -183 0 -3 13 -12 29 -22 l29 -16 266 159
c147 87 269 159 272 159 3 0 4 -21 2 -47 l-3 -47 -264 -159 c-164 -97 -271
-155 -280 -152 -22 8 -301 172 -329 193 -22 17 -19 20 378 256 220 132 406
246 412 253 8 10 9 111 5 373 -5 247 -4 360 4 360 5 0 23 -7 39 -15z"/>
<path d="M809 1603 l-226 -136 -6 -231 c-4 -127 -3 -248 1 -270 7 -38 10 -40
232 -172 124 -73 231 -133 238 -133 8 -1 117 61 243 136 l229 137 -2 266 -3
265 -225 137 c-124 75 -232 136 -240 136 -8 0 -117 -61 -241 -135z m447 -55
l204 -123 0 -227 0 -227 -194 -116 c-107 -63 -200 -117 -208 -120 -7 -3 -103
48 -213 113 l-200 118 -3 231 -2 230 202 121 c112 67 205 121 206 121 2 1 96
-54 208 -121z"/>
<path d="M972 1375 c-57 -48 -66 -122 -20 -180 l21 -27 -19 -81 c-10 -45 -19
-84 -19 -85 0 -2 51 -4 113 -5 128 -2 121 -10 93 99 l-18 70 23 28 c49 56 44
127 -12 175 -46 41 -117 44 -162 6z"/>
</g>
</svg>
