<?xml version="1.0" standalone="no"?>
<!DOCTYPE svg PUBLIC "-//W3C//DTD SVG 20010904//EN"
 "http://www.w3.org/TR/2001/REC-SVG-20010904/DTD/svg10.dtd">
<svg version="1.0" xmlns="http://www.w3.org/2000/svg"
 width="938.000000pt" height="1080.000000pt" viewBox="0 0 938.000000 1080.000000"
 preserveAspectRatio="xMidYMid meet">

<g transform="translate(0.000000,1080.000000) scale(0.100000,-0.100000)"
fill="#000000" stroke="none">
<path d="M4640 10753 c-14 -3 -34 -12 -45 -22 -11 -9 -31 -23 -45 -29 -14 -7
-61 -35 -105 -62 -44 -28 -97 -57 -117 -67 -21 -9 -38 -20 -38 -24 0 -5 -17
-17 -37 -27 -83 -42 -101 -53 -113 -67 -7 -8 -18 -15 -25 -15 -7 0 -28 -11
-48 -24 -19 -13 -46 -27 -58 -31 -13 -4 -26 -10 -29 -14 -9 -11 -111 -71 -121
-71 -5 0 -17 -8 -27 -17 -10 -10 -33 -26 -52 -36 -19 -10 -53 -29 -75 -42 -22
-14 -54 -31 -71 -39 -17 -8 -36 -22 -43 -30 -7 -8 -26 -18 -42 -21 -16 -4 -32
-12 -36 -20 -5 -7 -24 -20 -43 -29 -19 -9 -53 -27 -75 -41 -22 -14 -57 -32
-77 -41 -21 -9 -38 -20 -38 -24 0 -4 -15 -13 -32 -20 -18 -8 -40 -19 -48 -26
-8 -7 -46 -29 -84 -49 -38 -20 -75 -43 -83 -51 -8 -8 -21 -14 -28 -14 -7 0
-27 -11 -43 -25 -17 -14 -36 -25 -44 -25 -8 0 -24 -9 -36 -20 -12 -11 -24 -20
-27 -20 -6 0 -96 -50 -173 -97 -21 -12 -55 -31 -77 -43 -22 -11 -60 -34 -85
-50 -25 -16 -56 -34 -70 -40 -14 -6 -29 -16 -35 -23 -5 -7 -26 -20 -45 -30
-19 -9 -57 -31 -85 -47 -27 -16 -60 -34 -72 -39 -11 -6 -24 -15 -28 -21 -4 -6
-24 -18 -46 -27 -21 -8 -39 -19 -39 -23 0 -4 -17 -15 -37 -24 -45 -19 -106
-55 -113 -66 -3 -4 -21 -15 -40 -24 -19 -9 -57 -30 -85 -46 -27 -16 -60 -33
-72 -39 -11 -5 -24 -15 -28 -21 -4 -6 -24 -18 -45 -26 -21 -9 -41 -22 -44 -29
-2 -7 -18 -16 -35 -20 -16 -3 -35 -13 -42 -22 -7 -8 -22 -19 -34 -24 -19 -9
-53 -28 -172 -98 -32 -19 -78 -45 -102 -59 -25 -13 -58 -34 -74 -48 -16 -13
-36 -24 -46 -24 -10 0 -26 -9 -36 -20 -10 -11 -23 -20 -29 -20 -10 0 -87 -47
-114 -70 -7 -6 -28 -18 -47 -25 -18 -8 -36 -19 -40 -25 -4 -6 -22 -17 -41 -25
-19 -8 -58 -30 -88 -50 -29 -19 -58 -35 -63 -35 -6 0 -17 -7 -24 -16 -8 -9
-32 -25 -54 -35 -22 -11 -53 -28 -70 -39 -16 -11 -49 -29 -72 -40 -23 -11 -45
-25 -48 -30 -4 -6 -21 -17 -38 -26 -18 -8 -72 -37 -122 -64 -50 -27 -104 -56
-121 -64 -17 -8 -36 -21 -43 -29 -6 -8 -27 -18 -46 -21 l-35 -7 0 -2683 0
-2684 32 -6 c17 -3 39 -13 48 -21 8 -8 52 -33 95 -56 44 -23 92 -48 107 -56
15 -8 30 -19 34 -24 3 -6 25 -19 48 -30 22 -10 48 -23 56 -29 8 -5 61 -35 117
-65 56 -31 107 -62 113 -70 7 -8 20 -15 30 -15 10 0 23 -7 30 -15 6 -8 45 -31
86 -51 41 -21 74 -41 74 -45 0 -3 15 -12 33 -19 17 -7 41 -21 52 -30 19 -16
70 -48 179 -110 24 -14 78 -45 120 -70 42 -25 90 -52 107 -62 17 -9 38 -23 48
-32 10 -9 22 -16 27 -16 5 0 45 -23 89 -50 44 -28 85 -50 92 -50 7 0 13 -5 13
-11 0 -5 15 -16 34 -24 31 -13 93 -51 121 -73 6 -4 24 -14 42 -21 17 -7 39
-21 49 -32 9 -10 24 -19 33 -19 9 0 35 -13 58 -28 100 -65 162 -102 171 -102
6 0 23 -11 39 -24 15 -13 39 -27 53 -31 14 -4 27 -11 30 -15 6 -10 61 -43 118
-71 23 -12 42 -25 42 -29 0 -5 10 -12 22 -15 13 -4 47 -23 75 -42 29 -18 68
-40 86 -48 19 -8 39 -21 46 -29 7 -8 25 -18 41 -21 16 -3 34 -13 41 -21 7 -8
26 -22 43 -30 17 -8 49 -25 71 -39 22 -13 55 -31 73 -40 18 -8 41 -24 52 -35
11 -11 28 -20 37 -20 9 0 26 -9 37 -19 12 -10 46 -31 76 -47 30 -15 64 -35 75
-44 11 -10 31 -21 45 -25 14 -4 33 -16 43 -26 10 -11 23 -19 30 -19 7 0 41
-20 77 -45 36 -25 72 -45 81 -45 9 0 22 -7 29 -15 11 -13 89 -61 191 -117 17
-9 38 -23 47 -31 9 -8 28 -18 42 -22 14 -4 37 -18 52 -30 15 -12 48 -33 75
-46 26 -12 54 -31 61 -41 7 -10 21 -18 31 -18 10 0 29 -8 42 -18 25 -19 134
-84 195 -115 19 -9 43 -26 53 -36 10 -10 43 -30 74 -46 31 -15 61 -33 68 -41
6 -8 19 -14 28 -14 9 0 32 -14 51 -30 19 -16 38 -30 43 -30 4 0 7 -7 7 -15 0
-21 265 -22 273 -1 3 7 32 28 64 46 32 18 67 41 78 50 11 9 35 23 53 30 17 7
32 16 32 20 0 4 14 13 30 20 17 7 30 16 30 20 0 5 14 13 30 19 17 6 43 19 57
31 14 11 33 20 43 20 9 0 25 10 36 21 10 12 28 25 39 30 11 5 43 22 70 38 28
17 67 37 88 47 20 9 37 20 37 24 0 5 10 12 23 15 25 8 123 71 132 85 3 6 15
10 25 10 11 0 27 8 37 19 10 10 45 33 78 51 33 19 68 40 77 48 9 7 30 21 47
30 93 51 181 104 186 112 3 5 18 11 34 15 16 3 37 15 46 25 10 11 40 31 69 46
28 14 60 35 72 45 11 10 28 19 37 19 9 0 26 9 38 21 11 11 33 26 47 32 15 7
52 28 82 47 30 19 69 43 85 52 57 32 170 99 215 128 25 17 56 35 70 42 14 7
50 28 80 47 30 20 67 42 82 51 15 8 61 35 103 60 42 25 95 56 118 68 23 13 44
27 47 30 3 4 21 15 40 25 19 9 53 28 75 42 22 14 56 34 75 46 19 11 53 31 75
45 22 13 54 31 70 39 29 15 66 37 136 82 19 13 40 23 47 23 6 0 12 4 12 10 0
9 32 29 107 64 17 9 34 20 38 26 3 5 25 19 48 30 23 11 60 32 82 45 22 13 54
30 70 38 17 8 36 21 44 30 7 10 22 17 32 17 10 0 26 9 36 19 10 11 29 25 43
31 14 6 45 24 70 40 25 17 60 37 78 45 18 9 41 24 52 35 11 11 28 20 38 20 11
0 27 9 37 20 10 11 23 20 30 20 7 0 20 9 29 19 10 11 30 22 44 26 15 3 36 15
47 25 11 10 31 21 45 25 14 4 32 13 40 21 9 7 42 27 75 45 32 17 65 38 73 46
8 7 28 17 44 20 16 3 34 13 41 23 7 9 24 20 38 23 14 4 36 16 49 27 13 11 28
20 34 20 6 0 28 11 47 24 20 14 48 28 63 32 l26 6 0 2655 0 2655 -27 22 c-14
11 -39 28 -54 36 -16 8 -78 43 -138 78 -60 34 -112 62 -116 62 -3 0 -15 9 -27
20 -12 11 -29 20 -39 20 -9 0 -22 7 -29 15 -7 8 -41 29 -76 46 -34 17 -71 40
-80 50 -9 10 -25 19 -35 19 -10 0 -31 11 -47 25 -16 13 -40 29 -53 35 -13 6
-42 22 -64 35 -22 14 -54 31 -70 39 -17 8 -39 24 -49 35 -11 12 -27 21 -37 21
-10 0 -24 7 -32 15 -17 17 -70 49 -113 69 -17 8 -36 21 -43 29 -6 8 -24 18
-39 22 -15 4 -34 13 -42 20 -9 8 -43 28 -75 46 -33 17 -71 40 -84 50 -13 11
-29 19 -37 19 -7 0 -26 11 -42 25 -17 14 -37 25 -45 25 -8 0 -21 7 -28 16 -7
9 -22 20 -34 25 -11 5 -42 22 -70 39 -27 16 -69 39 -92 50 -23 11 -45 25 -48
30 -3 5 -18 15 -33 23 -47 23 -76 41 -105 65 -16 12 -35 22 -42 22 -7 0 -26
10 -42 23 -15 12 -53 36 -83 51 -30 16 -66 38 -79 48 -13 10 -29 18 -36 18 -7
0 -18 7 -25 14 -6 8 -30 24 -53 35 -23 11 -67 36 -97 56 -30 19 -60 35 -67 35
-7 0 -13 4 -13 9 0 5 -15 16 -32 25 -18 10 -53 30 -78 46 -25 16 -63 37 -85
48 -22 10 -46 26 -54 35 -7 10 -22 17 -32 17 -10 0 -20 4 -24 9 -3 6 -39 28
-79 50 -41 23 -79 48 -86 56 -7 8 -20 15 -30 15 -9 0 -28 8 -41 18 -13 10 -51
34 -84 52 -33 19 -62 37 -65 41 -3 4 -26 17 -52 29 -27 12 -48 26 -48 31 0 5
-6 9 -14 9 -7 0 -24 8 -37 19 -13 10 -57 35 -97 56 -39 21 -77 44 -83 52 -6 7
-17 13 -24 13 -7 0 -24 9 -37 20 -14 11 -58 37 -97 57 -119 63 -132 71 -149
86 -9 8 -44 30 -77 48 -33 18 -62 36 -65 40 -3 4 -21 14 -40 24 -57 27 -111
58 -171 98 -31 20 -62 37 -69 37 -6 0 -25 11 -42 25 -16 14 -36 25 -43 25 -7
0 -20 7 -28 15 -17 17 -72 50 -107 66 -14 5 -34 18 -45 28 -11 10 -32 25 -47
32 -15 8 -53 29 -84 48 -57 33 -106 44 -154 34z m73 -324 c12 -7 24 -15 27
-18 6 -8 47 -33 192 -115 64 -36 181 -105 233 -137 28 -16 64 -36 82 -44 17
-8 34 -19 38 -25 4 -6 21 -17 38 -25 18 -8 68 -37 112 -65 44 -27 96 -58 115
-68 47 -25 95 -53 155 -90 28 -17 66 -40 85 -50 40 -21 72 -40 190 -110 47
-28 138 -81 203 -119 65 -37 134 -77 152 -88 107 -64 191 -113 230 -135 24
-14 78 -45 120 -70 42 -25 93 -53 113 -64 20 -10 39 -22 42 -27 3 -4 21 -16
40 -24 50 -24 97 -50 115 -65 8 -7 29 -20 45 -29 16 -9 67 -38 112 -65 46 -27
95 -55 110 -63 15 -8 30 -19 33 -24 4 -5 21 -16 40 -23 18 -8 59 -31 92 -52
32 -21 78 -48 103 -62 43 -22 93 -53 152 -94 15 -10 31 -18 36 -18 5 0 21 -12
36 -26 l26 -27 0 -1878 c0 -1876 1 -1929 32 -1929 5 0 51 27 104 60 52 33 98
60 101 60 4 0 17 10 30 22 l23 21 0 1729 c0 1890 -4 1758 57 1724 15 -8 42
-22 60 -30 17 -9 34 -20 38 -26 4 -6 21 -17 38 -25 18 -8 52 -28 77 -45 25
-16 55 -34 68 -40 12 -5 22 -15 22 -22 0 -7 2 -769 5 -1694 l5 -1681 -27 -28
c-16 -15 -41 -34 -58 -42 -16 -7 -50 -27 -75 -43 -25 -16 -61 -39 -80 -50 -19
-11 -52 -31 -72 -43 -20 -12 -70 -41 -110 -65 -40 -24 -93 -56 -118 -72 -25
-16 -58 -36 -75 -45 -16 -8 -50 -28 -75 -45 -25 -16 -56 -35 -70 -42 -14 -7
-50 -28 -80 -47 -30 -20 -72 -44 -92 -56 -82 -44 -173 -99 -178 -106 -3 -5
-22 -15 -42 -23 -20 -9 -39 -20 -43 -26 -4 -6 -21 -17 -38 -25 -18 -8 -39 -19
-47 -25 -44 -30 -149 -92 -176 -105 -17 -7 -36 -21 -44 -29 -7 -9 -18 -16 -25
-16 -7 0 -23 -8 -36 -19 -13 -10 -53 -34 -89 -53 -36 -20 -87 -49 -115 -67
-27 -17 -63 -38 -80 -46 -16 -9 -50 -29 -75 -45 -25 -16 -61 -38 -80 -50 -19
-11 -53 -31 -75 -45 -22 -14 -54 -32 -72 -40 -17 -8 -34 -19 -38 -25 -4 -6
-21 -17 -38 -25 -18 -8 -52 -28 -77 -45 -25 -16 -58 -36 -75 -45 -16 -8 -50
-28 -75 -45 -25 -16 -56 -35 -70 -42 -14 -6 -33 -18 -42 -26 -9 -8 -30 -21
-47 -30 -50 -28 -173 -101 -221 -132 -25 -16 -58 -36 -75 -45 -16 -8 -50 -29
-75 -45 -25 -16 -56 -36 -70 -43 -14 -6 -70 -39 -125 -72 -121 -72 -122 -73
-274 -160 -67 -38 -138 -79 -156 -90 -19 -11 -55 -32 -81 -47 -25 -16 -52 -28
-59 -28 -11 0 -45 18 -143 77 -20 13 -48 29 -62 35 -21 11 -130 75 -191 113
-9 5 -54 32 -100 58 -46 26 -97 56 -114 66 -16 10 -70 42 -120 71 -49 29 -103
61 -120 71 -16 10 -49 29 -72 41 -24 12 -43 26 -43 30 0 4 -6 8 -13 8 -7 0
-47 21 -88 48 -41 26 -85 53 -99 60 -14 7 -45 25 -70 41 -25 16 -110 67 -189
113 -79 46 -165 95 -190 110 -25 15 -75 44 -111 63 -36 20 -72 40 -80 45 -8 6
-31 19 -50 30 -19 12 -53 32 -75 45 -22 13 -56 33 -75 43 -19 10 -51 28 -70
40 -42 26 -44 26 -64 6 -13 -12 -16 -39 -16 -128 0 -133 7 -176 29 -184 9 -3
41 -22 71 -42 31 -20 89 -55 130 -78 41 -23 93 -53 115 -67 22 -13 56 -34 75
-45 46 -27 96 -57 167 -100 32 -19 69 -40 83 -47 14 -7 42 -23 62 -36 59 -35
199 -117 248 -145 25 -14 59 -33 75 -43 17 -10 46 -28 65 -39 19 -11 42 -25
50 -30 55 -37 150 -93 177 -105 17 -8 35 -19 38 -25 4 -6 24 -18 46 -27 21 -8
39 -19 39 -23 0 -5 16 -14 35 -20 19 -6 35 -15 35 -19 0 -4 19 -17 43 -29 23
-12 60 -33 82 -47 22 -13 47 -27 55 -31 8 -4 29 -17 45 -28 17 -12 41 -27 55
-34 14 -7 42 -22 62 -35 91 -54 154 -92 173 -103 11 -6 39 -22 62 -35 137 -79
210 -121 223 -129 41 -27 152 -93 210 -126 36 -21 71 -43 78 -50 6 -7 22 -16
35 -20 12 -4 24 -10 27 -13 3 -4 39 -27 80 -51 41 -24 77 -47 80 -50 3 -3 21
-13 40 -23 19 -10 53 -29 75 -42 22 -13 56 -34 75 -45 19 -11 71 -43 115 -70
90 -55 212 -127 253 -150 15 -8 52 -31 82 -50 30 -19 71 -42 90 -52 19 -10 53
-30 75 -43 22 -13 56 -33 76 -44 19 -11 40 -31 47 -46 11 -25 10 -27 -24 -41
-20 -8 -41 -19 -48 -25 -6 -5 -33 -24 -61 -41 -27 -17 -72 -46 -100 -63 -74
-47 -80 -48 -133 -15 -26 17 -60 37 -77 45 -16 9 -50 29 -75 45 -25 16 -61 36
-80 45 -19 9 -37 19 -40 23 -3 5 -27 21 -55 37 -27 17 -58 34 -67 40 -9 5 -55
33 -103 60 -48 28 -102 59 -120 70 -18 11 -68 40 -112 64 -43 24 -80 47 -83
51 -3 4 -21 15 -40 24 -42 20 -113 59 -120 66 -6 7 -97 61 -130 77 -14 7 -32
17 -40 23 -45 30 -149 92 -177 105 -17 8 -34 19 -38 25 -4 6 -21 17 -38 25
-18 8 -50 26 -72 40 -22 14 -58 35 -80 46 -22 11 -76 42 -120 69 -44 27 -96
59 -115 70 -19 11 -53 32 -75 45 -22 13 -56 32 -75 42 -19 10 -41 24 -48 31
-8 7 -28 19 -45 27 -18 8 -45 23 -62 34 -40 25 -200 118 -250 146 -52 28 -119
67 -263 151 -45 27 -99 58 -120 70 -67 38 -106 61 -162 94 -30 18 -70 41 -87
51 -95 54 -250 146 -308 181 -66 40 -101 50 -115 33 -8 -9 -10 -59 -8 -150 l3
-137 30 -25 c30 -24 74 -50 144 -87 20 -10 38 -22 41 -26 3 -4 36 -23 74 -44
38 -20 75 -41 82 -47 7 -6 28 -18 46 -28 56 -30 111 -62 163 -96 28 -19 61
-39 75 -45 14 -5 45 -24 70 -40 25 -16 60 -36 78 -44 17 -8 32 -19 32 -24 0
-6 12 -13 28 -17 15 -3 34 -12 42 -19 8 -7 33 -23 55 -36 129 -74 186 -106
230 -131 22 -12 42 -25 45 -29 3 -4 15 -10 27 -14 13 -4 29 -13 35 -19 21 -19
118 -77 130 -77 6 0 19 -7 29 -16 10 -9 31 -23 48 -32 31 -18 139 -80 226
-132 28 -16 83 -49 123 -72 40 -24 90 -53 110 -65 20 -13 55 -32 77 -44 22
-11 60 -33 85 -49 25 -16 59 -36 75 -45 17 -8 50 -28 75 -45 43 -28 77 -47
147 -84 18 -10 35 -22 38 -27 4 -5 23 -16 43 -25 20 -8 39 -18 42 -23 3 -4 40
-27 84 -52 43 -24 95 -54 115 -66 20 -12 50 -29 66 -38 17 -9 48 -27 70 -40
22 -12 60 -35 85 -49 25 -14 61 -34 80 -44 53 -26 100 -62 100 -76 0 -7 -17
-24 -37 -38 -74 -48 -123 -78 -128 -78 -3 0 -18 -8 -33 -18 -128 -87 -142 -89
-223 -33 -31 22 -91 59 -133 83 -42 23 -93 53 -114 65 -20 13 -50 30 -67 38
-16 9 -55 31 -85 50 -30 19 -65 39 -78 44 -12 6 -36 20 -52 31 -17 11 -42 28
-57 38 -16 11 -57 35 -93 54 -71 38 -93 51 -218 124 -45 27 -102 60 -126 74
-173 101 -232 135 -304 180 -23 14 -94 55 -159 93 -65 37 -136 78 -158 92 -61
37 -130 77 -220 128 -27 16 -66 38 -86 50 -21 12 -75 43 -120 70 -46 26 -102
58 -124 72 -22 13 -58 33 -80 45 -22 11 -58 32 -80 45 -22 14 -51 30 -65 37
-14 6 -33 18 -42 26 -9 8 -30 21 -47 30 -39 22 -194 111 -237 137 -31 19 -183
107 -227 132 -12 7 -25 22 -30 35 -6 14 -9 769 -8 1921 1 1045 -1 1908 -4
1918 -11 33 -54 22 -160 -41 -27 -16 -64 -37 -81 -46 -17 -9 -36 -24 -42 -35
-19 -29 -17 -3888 1 -3906 16 -16 66 -45 120 -69 20 -9 37 -20 37 -24 0 -4 17
-15 38 -24 20 -10 58 -29 83 -44 25 -15 81 -47 124 -72 42 -25 94 -55 114 -67
20 -12 52 -30 71 -40 19 -10 37 -21 40 -24 3 -4 25 -17 49 -30 24 -13 55 -31
70 -39 14 -8 49 -28 76 -43 28 -16 68 -39 90 -52 22 -14 51 -30 65 -37 14 -6
32 -18 41 -25 9 -8 35 -24 57 -36 41 -22 160 -92 230 -134 21 -12 51 -29 67
-38 17 -8 48 -26 70 -39 22 -14 78 -47 124 -73 88 -50 119 -68 246 -143 42
-25 89 -52 105 -61 17 -9 36 -21 43 -28 8 -6 45 -27 83 -47 38 -21 71 -41 74
-45 3 -4 14 -12 25 -16 21 -9 102 -56 175 -103 25 -16 59 -36 75 -45 17 -8 47
-25 67 -38 20 -12 74 -44 120 -70 46 -26 99 -58 118 -69 19 -12 51 -31 71 -42
20 -12 76 -43 123 -71 48 -27 101 -58 119 -67 42 -23 54 -64 24 -82 -82 -50
-181 -106 -187 -106 -4 0 -15 -9 -25 -20 -10 -11 -22 -20 -28 -20 -5 0 -21 -9
-37 -20 l-27 -19 -51 27 c-51 27 -190 107 -260 149 -20 12 -54 33 -76 45 -21
13 -46 28 -55 33 -9 6 -50 30 -91 55 -41 25 -82 49 -91 55 -9 5 -40 23 -70 40
-77 42 -172 98 -208 120 -25 16 -163 98 -196 116 -16 10 -47 25 -67 34 -21 10
-38 21 -38 25 0 4 -17 14 -37 23 -21 9 -58 30 -83 46 -45 30 -73 46 -140 83
-19 11 -55 33 -80 49 -25 16 -63 38 -85 49 -22 12 -58 32 -80 45 -22 13 -56
34 -75 45 -57 34 -106 63 -167 100 -32 19 -69 40 -83 47 -14 7 -43 24 -65 37
-22 13 -58 34 -80 45 -22 11 -47 25 -55 31 -25 16 -174 105 -190 113 -8 4 -35
21 -60 37 -25 16 -58 36 -75 45 -41 22 -138 78 -240 140 -22 13 -58 34 -80 45
-22 11 -58 32 -80 45 -22 13 -56 33 -75 44 -19 10 -48 31 -63 45 l-28 26 4
1895 c4 1455 2 1897 -7 1904 -14 11 -54 4 -76 -14 -8 -6 -44 -28 -80 -48 -36
-19 -78 -49 -94 -66 l-29 -31 -1 -1730 -1 -1730 -29 0 c-15 0 -47 13 -70 28
-22 15 -57 36 -76 46 -19 10 -53 28 -75 41 -22 14 -53 32 -69 41 -17 9 -38 26
-48 38 -17 20 -18 91 -12 1686 3 916 10 1681 15 1700 5 22 19 41 36 51 16 9
53 32 84 51 31 19 62 38 70 42 8 4 32 18 54 31 22 14 58 34 80 46 22 11 60 33
85 49 39 25 202 121 292 172 16 9 37 23 46 30 9 8 28 20 42 26 14 7 45 26 70
42 25 16 61 39 80 50 19 11 55 34 80 50 25 16 55 34 67 39 11 5 24 15 28 21 4
6 24 18 46 27 21 8 39 19 39 23 0 4 18 15 39 23 22 9 42 21 46 27 3 6 21 17
38 25 18 8 50 26 72 39 22 14 56 34 75 45 19 12 53 32 75 46 22 14 51 30 65
37 14 6 33 18 42 26 9 8 30 21 47 30 93 52 188 108 199 118 6 7 22 16 34 20
12 3 43 21 68 39 26 18 62 41 81 50 19 10 36 21 39 24 3 3 21 14 40 24 19 10
53 29 75 42 22 13 56 34 75 45 52 31 110 66 150 90 90 55 117 71 150 87 19 10
44 26 54 36 11 9 23 17 27 17 8 0 110 61 119 71 3 3 20 11 38 18 17 8 32 17
32 20 0 4 15 15 33 24 17 9 55 30 82 47 28 17 64 38 80 46 17 9 53 29 80 45
28 16 61 34 75 41 14 6 33 18 42 26 18 15 65 42 114 66 17 8 36 22 44 30 7 9
16 16 20 16 4 0 37 18 71 40 35 22 75 45 89 52 14 7 33 18 42 26 9 7 31 22 49
31 30 16 37 17 69 4 19 -8 44 -23 55 -33 11 -9 51 -35 88 -56 37 -22 85 -49
105 -61 20 -12 56 -32 80 -44 23 -12 42 -25 42 -29 0 -5 13 -11 29 -15 16 -3
35 -13 42 -21 7 -8 26 -22 43 -30 17 -8 54 -27 81 -44 28 -16 64 -36 82 -44
17 -9 34 -20 38 -26 4 -6 21 -17 38 -25 18 -8 39 -19 47 -25 45 -30 149 -92
177 -105 17 -8 35 -19 38 -25 4 -6 24 -18 46 -27 21 -8 39 -19 39 -23 0 -4 12
-13 28 -20 15 -6 48 -23 73 -38 106 -61 126 -73 164 -97 44 -27 86 -52 155
-91 66 -38 120 -70 160 -94 19 -11 53 -32 75 -45 22 -13 56 -33 75 -45 100
-60 118 -70 150 -85 19 -9 37 -20 40 -24 9 -15 111 -62 120 -56 6 4 10 72 10
160 0 124 -3 156 -15 169 -16 16 -171 109 -360 216 -60 34 -126 72 -145 83
-19 11 -51 29 -70 39 -19 10 -55 32 -80 48 -25 17 -58 37 -75 46 -16 8 -51 27
-76 42 -25 15 -81 47 -123 72 -42 25 -94 55 -114 67 -20 13 -53 31 -72 40 -19
10 -37 20 -40 23 -5 6 -92 58 -115 70 -17 9 -117 70 -165 100 -25 16 -58 36
-75 45 -16 8 -47 25 -67 38 -75 45 -153 92 -173 103 -11 6 -56 32 -100 59 -44
26 -89 53 -100 59 -11 7 -46 27 -78 46 -32 19 -73 44 -91 55 -51 30 -272 158
-307 177 -17 9 -58 34 -92 56 -34 22 -88 55 -120 73 -32 19 -74 44 -95 56 -20
12 -57 34 -82 48 -25 14 -63 37 -85 50 -22 13 -47 27 -55 31 -8 4 -33 19 -55
34 -62 40 -78 49 -111 65 -17 7 -36 21 -44 29 -7 9 -16 16 -20 16 -4 0 -37 18
-71 40 -35 22 -77 47 -94 55 -31 16 -44 24 -110 66 -22 14 -47 29 -55 32 -8 4
-33 18 -55 32 -22 13 -58 34 -80 46 -22 12 -42 25 -45 29 -3 4 -20 15 -37 24
-18 9 -33 21 -33 27 0 23 22 50 53 65 39 18 96 50 117 64 69 46 91 59 131 79
l46 23 59 -40 c82 -54 274 -172 281 -172 4 0 38 -21 77 -47 120 -79 142 -93
148 -93 3 0 35 -18 69 -40 35 -22 78 -46 94 -55 17 -8 37 -19 45 -25 44 -30
149 -92 176 -105 17 -7 36 -21 44 -29 7 -9 18 -16 24 -16 10 0 85 -46 112 -69
6 -5 29 -19 50 -30 42 -23 49 -27 137 -83 51 -33 225 -134 308 -180 17 -9 38
-23 48 -32 10 -9 22 -16 27 -16 5 -1 52 -28 104 -60 52 -33 113 -69 135 -80
22 -11 60 -33 85 -50 25 -16 59 -36 75 -45 66 -35 97 -54 113 -68 9 -8 28 -18
42 -22 14 -4 32 -13 40 -20 8 -7 29 -20 45 -29 17 -9 48 -28 70 -41 22 -13 56
-31 75 -40 19 -9 37 -19 40 -24 3 -4 36 -25 75 -45 38 -20 76 -42 85 -49 8 -7
26 -19 40 -26 14 -7 48 -25 75 -41 28 -16 64 -36 80 -45 17 -8 48 -26 70 -40
22 -13 62 -37 89 -52 100 -57 112 -64 156 -93 25 -17 59 -37 77 -45 17 -8 35
-19 38 -25 4 -6 29 -22 57 -36 41 -21 52 -23 59 -12 5 7 9 84 9 170 l0 158
-37 20 c-21 12 -56 32 -78 45 -22 13 -56 33 -75 43 -46 25 -281 161 -328 189
-21 12 -50 29 -67 38 -16 8 -52 28 -80 45 -27 16 -83 49 -123 72 -40 24 -93
54 -116 68 -24 14 -78 45 -120 70 -42 25 -94 55 -114 67 -20 12 -55 32 -77 44
-22 12 -42 25 -45 28 -3 4 -16 12 -30 19 -43 23 -83 46 -140 82 -94 58 -154
94 -180 107 -14 7 -32 17 -40 23 -40 27 -182 110 -187 110 -4 0 -14 7 -24 16
-10 9 -31 23 -48 32 -17 10 -65 37 -107 62 -117 69 -167 97 -194 112 -14 7
-31 19 -38 26 -8 7 -28 19 -45 27 -18 8 -39 19 -47 25 -25 17 -174 106 -190
113 -8 4 -35 21 -60 37 -25 16 -58 36 -75 45 -16 8 -50 28 -75 45 -25 16 -56
35 -70 42 -14 7 -55 32 -93 55 -37 24 -71 43 -76 43 -4 0 -16 9 -26 20 -10 11
-23 20 -30 20 -12 0 -85 63 -85 74 0 6 68 52 110 74 14 7 43 24 65 37 22 14
56 33 75 42 19 10 43 25 53 34 23 21 49 15 111 -29 27 -19 63 -41 80 -49 17
-7 51 -27 76 -43 25 -16 52 -33 60 -37 18 -8 57 -32 157 -97 40 -25 76 -46 81
-46 5 0 15 -7 22 -15 7 -8 31 -24 54 -35 56 -28 83 -44 104 -63 10 -10 22 -17
27 -17 5 0 25 -11 44 -23 120 -79 183 -119 241 -151 36 -21 85 -50 110 -66 25
-16 59 -36 75 -45 17 -8 48 -26 70 -40 22 -14 56 -34 75 -46 19 -11 53 -31 75
-44 22 -13 56 -33 75 -45 19 -11 53 -31 75 -44 22 -14 77 -47 123 -73 46 -26
100 -58 120 -70 20 -13 51 -30 69 -38 17 -8 35 -19 38 -25 4 -6 24 -18 46 -27
21 -8 39 -19 39 -23 0 -4 17 -14 38 -24 20 -9 55 -28 77 -41 22 -14 57 -33 78
-42 20 -9 37 -19 37 -23 0 -4 18 -15 39 -23 22 -9 42 -21 46 -27 3 -6 21 -17
38 -26 18 -8 50 -26 72 -39 22 -14 59 -34 82 -45 23 -11 45 -25 48 -30 4 -6
21 -17 38 -25 53 -25 182 -98 187 -106 3 -5 22 -15 41 -23 20 -8 41 -22 49
-30 7 -9 17 -16 23 -16 12 0 104 -61 134 -89 l23 -22 0 -1921 c-1 -1580 1
-1924 12 -1935 11 -11 27 -4 93 42 44 30 84 55 88 55 21 0 95 62 100 82 3 13
7 884 9 1936 l3 1914 -30 24 c-16 14 -46 34 -65 45 -93 53 -123 71 -160 92
-60 34 -179 103 -235 137 -27 16 -83 49 -124 72 -40 24 -94 55 -120 70 -25 15
-59 34 -76 43 -16 9 -50 29 -75 45 -25 16 -62 37 -82 46 -21 9 -38 20 -38 24
0 4 -17 15 -37 24 -21 9 -58 30 -83 46 -25 16 -58 36 -75 45 -16 8 -66 37
-110 65 -44 27 -98 58 -120 70 -22 11 -58 32 -80 45 -22 13 -56 34 -75 45 -19
11 -57 34 -85 50 -27 17 -57 33 -65 36 -8 4 -22 13 -30 20 -8 6 -32 21 -52 33
-109 61 -182 104 -188 111 -3 3 -27 19 -55 35 -27 16 -63 38 -80 47 -16 10
-44 25 -62 33 -17 8 -34 19 -38 25 -4 6 -21 17 -38 25 -18 8 -39 19 -47 25
-34 23 -147 91 -180 108 -30 16 -216 124 -260 152 -8 6 -31 19 -50 30 -19 11
-53 32 -75 45 -22 14 -51 31 -65 37 -14 7 -43 26 -65 43 -22 16 -42 31 -44 32
-8 5 68 73 82 73 8 0 20 7 27 16 8 8 27 22 44 30 17 8 60 32 96 54 71 43 81
46 113 29z m-1928 -1158 c11 -10 58 -39 105 -65 86 -49 101 -58 225 -138 85
-55 225 -138 233 -138 3 0 13 -6 21 -14 9 -8 48 -31 86 -51 39 -20 77 -43 85
-49 12 -11 91 -57 185 -110 11 -6 34 -20 50 -30 17 -11 46 -29 65 -41 19 -12
67 -42 105 -66 39 -25 81 -50 95 -57 14 -7 43 -24 65 -37 22 -13 56 -34 75
-45 167 -101 181 -111 170 -125 -11 -14 -113 -83 -185 -126 -22 -13 -49 -29
-60 -36 -11 -7 -31 -18 -45 -25 -21 -12 -82 -47 -155 -91 -11 -7 -48 -29 -82
-50 -34 -21 -75 -46 -91 -55 -29 -16 -58 -33 -144 -85 -42 -25 -177 -104 -220
-129 -16 -9 -37 -23 -46 -31 -9 -7 -32 -19 -49 -27 -18 -7 -33 -16 -33 -20 0
-4 -17 -15 -37 -24 -21 -9 -58 -30 -83 -46 -25 -16 -58 -36 -75 -45 -16 -8
-66 -37 -110 -64 -44 -28 -113 -69 -154 -93 -41 -24 -95 -55 -120 -70 -25 -15
-59 -34 -76 -44 -16 -9 -32 -20 -35 -24 -3 -4 -21 -15 -40 -24 -19 -9 -55 -29
-80 -46 -25 -16 -52 -33 -60 -37 -8 -3 -41 -23 -72 -44 -32 -21 -88 -55 -125
-75 -38 -21 -74 -44 -81 -50 -6 -7 -22 -16 -35 -20 -12 -3 -30 -13 -40 -22
-19 -17 -32 -25 -98 -61 -24 -13 -46 -27 -49 -30 -3 -4 -23 -17 -45 -30 -83
-49 -111 -65 -136 -78 -15 -7 -32 -20 -39 -28 -7 -8 -18 -15 -24 -15 -7 0 -46
-21 -87 -48 -41 -26 -85 -53 -99 -60 -14 -7 -43 -23 -65 -37 -22 -13 -53 -31
-70 -40 -16 -9 -50 -29 -75 -45 -25 -17 -63 -39 -85 -51 -22 -11 -60 -33 -85
-49 -25 -16 -58 -36 -75 -45 -16 -8 -66 -38 -110 -65 -44 -27 -94 -56 -111
-64 -17 -8 -36 -22 -44 -30 -7 -9 -18 -16 -24 -16 -7 0 -21 -6 -32 -14 -19
-14 -19 -46 -24 -1708 l-5 -1693 -22 -3 c-12 -2 -36 6 -53 17 -16 12 -43 30
-59 40 -15 11 -44 27 -62 36 -56 26 -96 51 -134 79 l-35 27 0 1684 c0 1286 3
1690 12 1710 7 15 28 35 47 46 20 11 56 33 81 49 25 16 63 39 85 51 79 42 111
60 150 84 22 13 51 30 65 37 14 7 54 31 90 54 36 23 75 45 88 49 12 3 22 10
22 15 0 4 18 15 39 23 22 9 42 21 46 27 3 6 21 17 38 25 18 8 52 29 77 45 25
16 59 37 75 45 17 9 50 29 75 45 25 16 79 48 120 71 41 24 77 46 78 51 2 4 8
8 14 8 5 0 46 23 91 50 45 28 86 50 93 50 6 0 19 9 29 20 10 11 23 20 29 20
10 0 87 47 114 70 7 6 27 18 45 26 17 8 52 28 77 44 25 16 54 34 65 40 11 5
45 25 75 45 30 19 71 42 90 51 19 9 37 20 40 24 4 6 53 35 193 113 18 10 52
31 77 47 25 16 56 35 70 42 14 7 34 21 44 30 11 10 25 18 30 18 11 0 87 48
114 70 7 6 25 17 40 23 15 7 47 25 72 42 58 37 117 71 157 90 17 8 34 19 38
25 4 6 21 17 38 25 18 8 52 29 77 45 25 16 59 36 76 44 17 8 36 22 44 30 7 9
16 16 21 16 7 0 64 33 119 70 15 10 54 35 158 100 48 31 51 35 39 54 -8 12
-43 40 -78 63 -35 24 -68 46 -74 51 -61 48 -75 54 -109 42 -29 -9 -211 -122
-226 -139 -3 -4 -16 -12 -30 -19 -38 -18 -88 -48 -105 -62 -8 -7 -28 -20 -45
-29 -48 -26 -172 -100 -220 -131 -25 -16 -76 -47 -115 -70 -38 -23 -90 -54
-115 -70 -53 -34 -81 -50 -133 -78 -21 -11 -45 -26 -53 -32 -8 -7 -28 -20 -44
-29 -16 -9 -67 -38 -112 -65 -46 -26 -99 -57 -118 -68 -19 -11 -37 -23 -40
-27 -3 -3 -21 -14 -40 -24 -50 -26 -94 -51 -100 -58 -3 -4 -23 -16 -45 -28
-22 -12 -58 -33 -80 -46 -22 -14 -71 -43 -110 -65 -38 -23 -106 -63 -150 -91
-44 -27 -93 -56 -110 -64 -16 -8 -55 -31 -85 -50 -30 -19 -66 -40 -80 -47 -14
-7 -29 -16 -35 -21 -27 -21 -90 -59 -118 -72 -27 -12 -119 -67 -177 -105 -8
-5 -31 -17 -50 -25 -19 -9 -37 -19 -40 -24 -3 -5 -23 -18 -45 -30 -22 -12 -58
-33 -80 -46 -22 -13 -53 -31 -70 -40 -16 -9 -55 -31 -85 -50 -30 -20 -68 -42
-85 -50 -32 -16 -54 -29 -98 -58 -52 -34 -54 -24 -49 255 l2 147 52 34 c46 30
156 94 303 177 70 39 283 163 323 187 20 12 51 29 67 38 17 9 50 29 75 45 25
16 60 36 77 44 18 8 38 20 45 26 25 21 103 70 112 70 5 0 17 6 25 14 9 8 48
31 86 51 39 21 81 46 94 56 13 11 29 19 36 19 7 0 18 7 25 16 8 8 27 22 44 30
17 8 54 28 81 44 28 17 60 34 72 39 11 6 24 15 28 21 4 6 24 18 46 27 21 8 39
19 39 23 0 4 15 13 33 20 17 8 40 20 50 28 18 16 25 20 103 65 27 15 67 39 89
52 22 13 54 31 70 40 17 9 50 29 75 45 25 17 59 37 77 45 17 8 34 19 38 25 4
6 21 17 38 25 18 8 52 29 77 45 25 16 59 37 77 45 17 8 34 19 38 25 4 6 21 17
38 25 18 8 52 28 77 45 25 16 73 45 108 65 96 56 93 94 -12 151 -16 9 -51 32
-78 50 -26 19 -56 34 -65 34 -17 0 -103 -39 -113 -51 -3 -3 -21 -14 -40 -24
-19 -10 -37 -21 -40 -24 -5 -7 -87 -57 -120 -74 -8 -4 -35 -21 -60 -37 -25
-16 -78 -48 -119 -72 -41 -24 -95 -55 -120 -70 -25 -15 -59 -34 -76 -43 -16
-9 -50 -29 -75 -45 -25 -16 -56 -35 -70 -42 -14 -6 -32 -18 -40 -25 -9 -7 -47
-29 -85 -49 -38 -20 -90 -51 -115 -68 -25 -18 -60 -38 -77 -45 -18 -7 -33 -17
-33 -21 0 -4 -15 -13 -32 -20 -18 -8 -40 -19 -48 -26 -9 -7 -43 -27 -75 -45
-33 -17 -67 -37 -75 -43 -14 -12 -97 -62 -130 -79 -8 -4 -35 -21 -60 -37 -25
-16 -63 -39 -85 -50 -22 -11 -57 -30 -77 -43 -45 -26 -190 -112 -235 -138 -17
-10 -51 -30 -75 -46 -24 -15 -59 -36 -78 -46 -64 -33 -101 -55 -118 -69 -9 -8
-28 -20 -42 -26 -14 -7 -50 -26 -80 -42 -37 -21 -57 -27 -65 -19 -11 11 -20
334 -10 386 4 24 14 37 38 48 18 9 53 28 78 43 25 15 79 46 120 70 41 24 110
65 154 92 44 27 94 56 110 65 17 8 55 31 85 50 30 20 64 40 75 45 11 6 43 23
70 40 28 16 61 35 75 42 14 7 51 29 82 49 31 21 66 40 77 44 12 3 27 12 34 19
7 8 31 23 53 35 21 12 57 33 79 46 50 31 176 104 215 126 17 9 37 22 45 29 8
7 29 20 45 29 94 51 256 146 260 153 3 4 22 14 42 22 20 9 39 20 43 26 4 6 21
17 38 25 18 8 49 25 69 38 20 12 72 42 115 67 43 24 83 48 88 52 24 20 88 58
185 113 58 32 116 67 130 77 29 23 72 18 105 -11z m6041 -1266 c27 -19 56 -35
65 -35 9 0 22 -7 29 -16 8 -8 29 -22 49 -30 19 -8 38 -18 41 -22 3 -4 17 -13
33 -20 15 -6 33 -24 39 -39 9 -21 12 -442 12 -1698 1 -1531 0 -1673 -15 -1696
-9 -14 -47 -40 -83 -59 -37 -18 -69 -37 -72 -42 -3 -5 -20 -15 -37 -24 -44
-20 -114 -59 -162 -89 -22 -14 -56 -34 -75 -45 -19 -12 -53 -32 -75 -45 -22
-13 -53 -31 -70 -40 -16 -9 -50 -29 -75 -45 -25 -16 -61 -38 -80 -50 -19 -11
-53 -31 -75 -45 -22 -13 -56 -34 -75 -45 -19 -11 -53 -32 -75 -45 -22 -14 -74
-44 -115 -67 -41 -23 -77 -44 -80 -48 -6 -6 -133 -85 -183 -113 -18 -10 -52
-31 -77 -47 -25 -17 -58 -37 -75 -45 -16 -9 -50 -29 -75 -45 -44 -28 -250
-149 -310 -181 -16 -9 -37 -22 -45 -29 -8 -7 -28 -20 -45 -29 -49 -27 -172
-101 -220 -131 -25 -16 -58 -36 -75 -45 -16 -8 -50 -29 -75 -45 -25 -16 -58
-37 -75 -45 -26 -13 -133 -78 -175 -105 -8 -5 -31 -19 -50 -30 -41 -25 -101
-60 -150 -90 -41 -25 -101 -61 -150 -90 -19 -11 -55 -34 -80 -50 -53 -34 -173
-104 -241 -141 -84 -45 -99 -58 -99 -83 0 -25 24 -41 180 -124 36 -19 69 -38
73 -42 10 -8 88 32 107 55 7 8 17 15 22 15 5 0 42 21 82 47 122 81 229 143
244 143 5 0 17 9 27 20 10 11 21 20 25 20 7 0 129 70 200 115 19 12 58 36 85
53 28 17 55 36 62 42 7 5 16 10 21 10 5 0 43 22 83 50 41 27 79 50 85 50 6 0
17 7 24 16 8 8 27 21 44 29 17 8 49 26 71 39 22 14 60 37 85 51 55 31 68 39
150 91 36 23 76 47 90 54 14 7 27 16 30 19 3 3 21 14 40 24 34 18 67 37 148
87 23 14 75 45 117 70 42 25 93 55 113 67 20 12 53 31 72 43 19 11 53 31 75
45 22 14 59 35 83 47 23 12 42 26 42 30 0 4 6 8 14 8 7 0 47 22 87 50 41 27
79 50 85 50 6 0 17 7 24 16 8 8 27 22 44 29 17 8 60 33 95 55 34 22 67 40 71
40 5 0 15 6 22 13 18 17 117 77 127 77 5 0 14 7 21 16 8 8 27 22 44 30 17 8
51 27 76 43 151 99 172 102 181 26 4 -27 4 -113 1 -190 -6 -151 -18 -187 -68
-199 -12 -3 -29 -12 -36 -20 -8 -7 -49 -33 -92 -57 -42 -24 -85 -49 -94 -54
-9 -6 -51 -30 -92 -55 -41 -25 -82 -49 -92 -55 -42 -26 -172 -102 -199 -117
-17 -9 -38 -23 -48 -32 -10 -9 -21 -16 -25 -16 -4 0 -22 -10 -39 -22 -36 -26
-77 -50 -124 -72 -17 -9 -34 -20 -38 -26 -4 -6 -21 -17 -38 -25 -27 -12 -108
-60 -177 -105 -8 -5 -46 -28 -85 -50 -38 -22 -88 -51 -110 -65 -22 -13 -60
-36 -85 -50 -25 -15 -63 -37 -85 -51 -22 -13 -54 -30 -71 -38 -17 -8 -36 -22
-44 -30 -7 -9 -16 -16 -20 -16 -4 0 -37 -18 -71 -40 -35 -22 -77 -47 -94 -56
-16 -8 -50 -28 -75 -44 -25 -16 -58 -36 -75 -44 -47 -24 -95 -53 -113 -68 -9
-8 -28 -19 -42 -26 -14 -7 -54 -30 -89 -52 -34 -22 -67 -40 -71 -40 -4 0 -13
-7 -20 -16 -8 -8 -27 -22 -44 -30 -17 -8 -51 -28 -76 -44 -25 -16 -58 -37 -75
-45 -16 -9 -50 -29 -75 -45 -25 -16 -61 -38 -81 -49 -33 -18 -49 -38 -49 -62
0 -5 17 -16 37 -24 21 -9 40 -19 43 -24 3 -4 43 -29 89 -54 93 -53 97 -53 176
-2 139 89 163 104 200 124 22 12 58 33 80 46 22 13 56 34 75 45 19 11 53 32
75 45 22 13 60 35 85 50 25 14 63 37 85 50 22 14 55 32 73 41 17 9 32 20 32
25 0 5 6 9 13 9 11 0 81 41 182 108 11 7 39 22 62 33 23 11 45 24 48 29 3 5
20 16 38 26 69 36 104 56 147 84 25 16 61 39 80 50 33 20 72 43 150 90 19 11
55 34 80 50 25 16 59 36 75 45 17 8 50 28 75 44 25 16 64 39 87 51 23 12 57
31 75 44 41 27 104 64 216 127 20 12 39 24 42 28 3 3 21 14 40 24 19 10 51 28
72 40 102 62 132 77 153 77 20 0 23 -6 28 -54 7 -73 -3 -326 -15 -349 -9 -17
-67 -59 -118 -84 -14 -7 -45 -27 -70 -43 -25 -16 -59 -37 -77 -45 -17 -8 -34
-19 -38 -25 -4 -6 -21 -17 -38 -25 -18 -8 -52 -28 -77 -45 -53 -35 -103 -63
-147 -84 -17 -9 -34 -20 -38 -26 -3 -5 -25 -19 -48 -30 -23 -11 -59 -30 -79
-43 -20 -12 -70 -41 -110 -65 -40 -23 -91 -53 -113 -67 -22 -13 -56 -34 -75
-45 -19 -11 -60 -36 -90 -56 -30 -19 -64 -39 -75 -44 -11 -6 -40 -24 -65 -40
-25 -16 -54 -34 -65 -40 -11 -5 -45 -25 -75 -44 -30 -20 -71 -42 -90 -51 -19
-9 -37 -19 -40 -23 -5 -7 -83 -56 -120 -75 -8 -4 -35 -21 -60 -37 -25 -16 -76
-47 -115 -70 -38 -22 -88 -51 -110 -65 -22 -13 -60 -36 -85 -50 -25 -15 -61
-36 -81 -48 -20 -12 -91 -53 -158 -91 -67 -38 -124 -72 -127 -77 -10 -16 -81
-10 -105 10 -13 10 -34 21 -46 25 -13 4 -29 13 -35 19 -7 7 -29 20 -48 30 -19
9 -53 28 -75 42 -22 13 -53 32 -70 41 -37 20 -158 90 -237 137 -20 12 -76 45
-124 72 -83 48 -116 68 -194 115 -53 32 -111 67 -150 90 -19 11 -53 31 -75 44
-22 14 -74 44 -115 68 -41 23 -79 46 -85 50 -23 19 -101 68 -108 68 -4 0 -20
8 -35 19 -15 10 -49 32 -77 50 -72 45 -105 72 -105 85 0 7 15 20 33 30 17 9
55 30 82 46 28 17 59 34 71 39 11 5 27 15 35 23 8 7 44 28 79 47 35 19 69 38
75 43 5 5 28 20 50 33 75 44 160 96 205 125 25 17 59 37 77 45 17 8 37 20 45
27 7 7 24 19 38 26 48 25 95 52 110 62 35 23 147 93 205 127 104 62 173 102
206 120 22 12 47 27 55 34 8 6 27 19 43 28 69 40 177 103 191 111 69 45 150
93 177 105 17 8 34 19 38 25 4 6 21 17 38 25 18 8 52 29 77 45 25 16 59 37 77
45 17 8 34 19 38 25 4 6 21 17 38 25 18 8 49 25 69 38 40 24 185 109 233 135
17 9 32 20 35 23 3 4 23 16 45 28 22 12 58 33 80 46 22 14 73 44 113 67 40 24
93 54 116 68 165 96 200 117 226 131 17 9 36 22 44 29 8 6 30 19 48 29 18 10
50 27 71 39 20 12 53 31 73 42 44 25 72 42 156 97 37 24 71 43 75 43 4 0 28
14 53 30 25 17 52 35 60 40 8 5 36 24 62 40 25 17 52 37 58 45 10 12 12 300
11 1277 0 695 -4 1441 -7 1659 l-7 396 22 22 c11 11 25 21 29 21 5 0 31 -16
58 -35z"/>
<path d="M4661 7843 c-7 -3 -49 -27 -93 -54 -44 -27 -83 -49 -88 -49 -4 0 -13
-7 -20 -16 -8 -8 -27 -22 -44 -29 -17 -8 -60 -33 -95 -55 -34 -22 -67 -40 -72
-40 -5 0 -9 -4 -9 -8 0 -5 -12 -14 -27 -21 -16 -7 -57 -31 -93 -54 -94 -61
-102 -66 -135 -82 -16 -8 -55 -31 -85 -50 -30 -19 -68 -42 -85 -50 -16 -9 -50
-29 -75 -45 -76 -49 -168 -100 -179 -100 -6 0 -11 -4 -11 -9 0 -5 -18 -16 -39
-24 -22 -9 -42 -21 -46 -27 -3 -6 -21 -17 -38 -25 -27 -12 -119 -67 -177 -105
-8 -5 -31 -17 -50 -25 -19 -9 -37 -19 -40 -23 -5 -7 -30 -23 -115 -72 -16 -10
-48 -28 -70 -40 -22 -13 -47 -29 -55 -36 -8 -6 -42 -26 -75 -43 -32 -18 -67
-38 -75 -46 -9 -8 -21 -15 -26 -15 -8 0 -85 -48 -110 -69 -6 -5 -25 -16 -42
-25 -63 -33 -60 39 -61 -1231 -1 -828 1 -1169 9 -1192 10 -27 75 -83 96 -83 4
0 15 -7 25 -16 17 -16 47 -33 124 -74 22 -11 58 -32 80 -45 44 -27 90 -54 150
-90 22 -13 58 -34 80 -46 22 -12 42 -24 45 -28 3 -3 21 -14 40 -24 54 -27 93
-51 108 -65 8 -7 28 -19 45 -27 18 -9 68 -38 112 -65 44 -27 98 -59 120 -70
22 -11 57 -30 77 -43 35 -21 139 -82 237 -139 25 -15 60 -34 76 -43 17 -9 50
-29 75 -45 53 -34 193 -117 232 -137 15 -8 30 -19 33 -24 4 -5 21 -16 38 -24
26 -12 102 -57 177 -105 57 -36 146 -83 172 -90 19 -6 37 -5 51 3 45 24 187
112 203 126 6 5 44 27 85 50 41 23 88 51 104 61 17 11 46 29 65 40 19 11 55
34 80 50 25 16 61 39 80 50 19 11 52 31 72 43 20 12 76 45 124 72 48 28 103
60 123 72 20 12 50 29 66 38 17 9 71 40 120 70 50 30 104 62 120 70 17 9 50
29 75 45 25 16 77 47 115 70 39 23 106 63 150 91 44 27 94 55 111 63 17 8 36
22 44 30 7 9 18 16 24 16 6 0 31 14 56 30 67 45 71 47 123 80 26 17 50 30 52
30 12 0 97 64 105 80 6 12 10 432 10 1192 0 1296 5 1200 -63 1234 -18 9 -34
20 -37 24 -3 4 -18 15 -35 24 -16 10 -48 28 -70 41 -22 14 -51 30 -65 37 -30
15 -102 59 -255 155 -11 7 -38 22 -60 34 -22 12 -42 25 -45 29 -3 3 -40 26
-83 51 -43 24 -95 54 -115 66 -61 37 -96 57 -145 82 -26 14 -47 29 -47 33 0 4
-5 8 -10 8 -6 0 -47 23 -91 50 -44 28 -84 50 -89 50 -4 0 -13 7 -20 16 -8 8
-27 22 -44 30 -17 8 -51 28 -76 44 -25 16 -58 37 -75 45 -16 9 -50 29 -75 45
-25 17 -59 36 -76 44 -17 8 -36 22 -44 30 -7 9 -17 16 -23 16 -6 0 -27 11 -46
24 -92 60 -181 116 -186 116 -3 0 -40 23 -82 50 -42 28 -83 50 -90 50 -7 0
-13 4 -13 8 0 11 -66 42 -88 41 -9 0 -23 -3 -31 -6z m76 -347 c4 -8 24 -21 43
-30 19 -9 53 -27 75 -40 55 -34 111 -67 149 -89 17 -10 49 -29 71 -42 22 -13
56 -34 75 -45 19 -11 55 -34 80 -50 25 -17 59 -37 77 -45 17 -8 34 -19 38 -25
4 -6 21 -17 38 -25 27 -12 108 -60 177 -105 22 -14 156 -92 190 -111 17 -9 37
-22 45 -29 8 -7 28 -20 44 -29 66 -36 128 -73 156 -91 17 -11 46 -29 65 -40
43 -25 159 -96 180 -110 8 -6 26 -16 40 -23 23 -11 105 -60 154 -90 11 -7 44
-27 73 -45 l53 -33 0 -1028 0 -1029 -35 -31 c-20 -17 -40 -31 -46 -31 -5 0
-36 -17 -67 -38 -31 -21 -72 -44 -89 -51 -18 -7 -33 -17 -33 -21 0 -4 -18 -15
-39 -23 -22 -9 -42 -21 -46 -27 -3 -6 -21 -17 -38 -25 -18 -8 -39 -19 -47 -25
-45 -30 -149 -92 -177 -105 -17 -8 -34 -19 -38 -25 -4 -6 -21 -17 -38 -25 -18
-8 -54 -28 -82 -44 -27 -16 -63 -36 -80 -45 -16 -9 -50 -30 -75 -46 -25 -16
-59 -36 -76 -44 -17 -8 -36 -22 -44 -30 -7 -9 -16 -16 -21 -16 -9 0 -112 -62
-119 -72 -3 -4 -22 -14 -41 -22 -20 -8 -41 -22 -49 -30 -7 -9 -16 -16 -21 -16
-7 0 -108 -59 -119 -70 -3 -3 -21 -13 -40 -23 -19 -10 -51 -28 -71 -40 -31
-19 -119 -70 -218 -127 -14 -8 -40 -25 -58 -37 -41 -30 -78 -29 -119 2 -18 14
-35 25 -39 25 -3 0 -36 20 -73 44 -37 24 -132 81 -212 126 -182 104 -230 132
-338 197 -21 12 -51 29 -68 37 -17 8 -36 22 -44 30 -7 9 -16 16 -20 16 -4 0
-37 18 -71 40 -35 22 -80 48 -99 56 -19 9 -37 19 -40 23 -3 4 -40 27 -84 52
-43 24 -93 53 -112 64 -118 70 -204 120 -234 137 -19 10 -53 30 -75 43 -22 13
-58 33 -80 45 -22 11 -60 34 -85 50 -25 16 -61 37 -80 47 -19 10 -40 29 -46
42 -9 18 -12 277 -11 1048 l2 1025 30 24 c17 13 41 30 55 37 25 13 112 63 178
105 21 12 51 29 67 37 17 8 59 33 94 55 34 22 66 40 69 40 3 0 13 7 23 16 10
9 31 23 48 32 27 15 84 48 230 134 25 15 62 36 81 48 65 40 207 123 306 180
17 10 62 37 100 61 38 23 89 53 113 66 25 13 52 29 60 37 9 7 23 16 31 19 8 4
56 31 105 61 50 30 123 73 162 96 40 23 75 45 78 51 9 14 73 11 82 -5z"/>
<path d="M4590 6294 c-182 -28 -349 -155 -429 -329 -57 -123 -66 -281 -24
-409 14 -45 29 -83 33 -86 4 -3 13 -16 20 -30 20 -37 70 -99 114 -142 l39 -37
-7 -67 c-4 -37 -15 -91 -26 -121 -10 -29 -22 -79 -26 -111 -4 -31 -15 -81 -25
-111 -11 -30 -19 -64 -19 -75 0 -12 -9 -48 -19 -81 -23 -71 -50 -169 -58 -207
-4 -22 -1 -29 18 -36 13 -5 242 -9 509 -10 429 0 487 1 503 15 22 20 21 41 -4
133 -11 41 -29 109 -39 150 -30 120 -49 191 -70 258 -11 34 -20 74 -20 87 0
14 -9 51 -20 82 -23 65 -27 56 70 153 118 118 173 246 174 405 0 83 -4 113
-26 177 -42 119 -130 234 -234 304 -28 19 -54 34 -58 34 -4 0 -31 11 -59 24
-31 15 -81 27 -122 31 -38 3 -79 7 -90 9 -11 2 -58 -3 -105 -10z"/>
</g>
</svg>
