<?xml version="1.0" standalone="no"?>
<!DOCTYPE svg PUBLIC "-//W3C//DTD SVG 20010904//EN"
 "http://www.w3.org/TR/2001/REC-SVG-20010904/DTD/svg10.dtd">
<svg version="1.0" xmlns="http://www.w3.org/2000/svg"
 width="300.000000pt" height="300.000000pt" viewBox="0 0 300.000000 300.000000"
 preserveAspectRatio="xMidYMid meet">
<metadata>
Created by potrace 1.16, written by Peter Selinger 2001-2019
</metadata>
<g transform="translate(0.000000,300.000000) scale(0.100000,-0.100000)"
fill="#000000" stroke="none">
<path d="M1233 2886 c-40 -8 -117 -28 -170 -46 -502 -165 -863 -566 -975
-1083 -31 -147 -31 -427 0 -574 45 -207 138 -417 257 -575 157 -209 437 -419
658 -492 63 -21 89 -20 115 4 21 20 22 29 22 168 l0 148 -132 0 c-213 0 -253
23 -361 206 -35 59 -81 118 -126 163 -39 38 -71 73 -71 76 0 4 13 12 30 17 65
23 148 -23 242 -135 118 -142 195 -178 325 -154 89 16 99 23 117 79 9 27 30
71 47 97 16 26 29 48 27 49 -2 1 -50 12 -108 25 -244 53 -376 143 -463 316
-52 105 -62 157 -62 340 0 196 8 232 81 342 43 65 45 70 38 118 -11 74 -6 226
8 271 27 82 103 76 295 -22 l121 -62 64 16 c95 24 498 23 585 -1 l63 -17 77
44 c142 82 284 123 316 92 27 -28 40 -122 34 -254 l-6 -123 39 -60 c130 -201
123 -524 -15 -744 -85 -135 -266 -234 -492 -270 -24 -4 -43 -8 -43 -10 0 -2
18 -34 39 -72 l39 -68 7 -282 c7 -281 8 -282 31 -298 13 -8 35 -15 49 -15 62
0 308 124 436 220 85 64 215 196 288 294 115 153 209 365 253 569 31 146 31
428 0 569 -65 296 -190 526 -397 733 -201 201 -432 330 -690 387 -119 26 -483
35 -592 14z"/>
</g>
</svg>
