<?xml version="1.0" standalone="no"?>
<!DOCTYPE svg PUBLIC "-//W3C//DTD SVG 20010904//EN"
 "http://www.w3.org/TR/2001/REC-SVG-20010904/DTD/svg10.dtd">
<svg version="1.0" xmlns="http://www.w3.org/2000/svg"
 width="426.000000pt" height="427.000000pt" viewBox="0 0 426.000000 427.000000"
 preserveAspectRatio="xMidYMid meet">
<metadata>
Created by potrace 1.16, written by Peter Selinger 2001-2019
</metadata>
<g transform="translate(0.000000,427.000000) scale(0.100000,-0.100000)"
fill="#000000" stroke="none">
<path d="M1005 4254 c-502 -91 -913 -510 -995 -1017 -6 -39 -10 -455 -10
-1098 0 -1125 0 -1115 56 -1284 130 -393 459 -704 856 -810 165 -44 240 -47
1293 -43 1092 5 1024 1 1230 69 374 124 669 431 792 824 l28 90 3 1125 c3
1250 6 1180 -64 1365 -154 403 -510 697 -943 779 -73 14 -217 16 -1125 15
-858 -1 -1055 -3 -1121 -15z m2213 -430 c254 -52 462 -225 559 -464 55 -136
54 -114 51 -1253 l-3 -1052 -27 -80 c-46 -132 -101 -220 -198 -317 -75 -74
-102 -93 -191 -136 -179 -86 -111 -82 -1279 -82 -1143 0 -1100 -2 -1248 66
-230 105 -386 300 -436 546 -24 114 -24 2060 -1 2173 47 228 199 429 400 528
185 90 113 85 1278 86 891 1 1027 -1 1095 -15z"/>
<path d="M3164 3512 c-122 -43 -194 -154 -181 -279 16 -151 139 -253 291 -241
176 15 290 176 242 342 -42 144 -210 229 -352 178z"/>
<path d="M1990 3199 c-265 -34 -525 -180 -693 -390 -417 -521 -262 -1292 324
-1613 250 -137 583 -164 858 -69 470 161 776 633 723 1113 -43 382 -257 690
-596 855 -201 98 -400 132 -616 104z m294 -445 c223 -57 406 -240 462 -463 19
-77 21 -203 5 -286 -36 -176 -177 -355 -341 -433 -108 -51 -173 -66 -280 -66
-170 0 -317 61 -441 184 -129 128 -189 269 -189 445 0 116 20 198 72 299 79
152 242 281 405 320 79 20 231 20 307 0z"/>
</g>
</svg>
