<?xml version="1.0" standalone="no"?>
<!DOCTYPE svg PUBLIC "-//W3C//DTD SVG 20010904//EN"
 "http://www.w3.org/TR/2001/REC-SVG-20010904/DTD/svg10.dtd">
<svg version="1.0" xmlns="http://www.w3.org/2000/svg"
 width="240.000000pt" height="240.000000pt" viewBox="0 0 240.000000 240.000000"
 preserveAspectRatio="xMidYMid meet">
<metadata>
Created by potrace 1.16, written by Peter Selinger 2001-2019
</metadata>
<g transform="translate(0.000000,240.000000) scale(0.100000,-0.100000)"
fill="#000000" stroke="none">
<path d="M440 2390 c-204 -31 -354 -163 -417 -365 -17 -56 -18 -111 -18 -825
0 -842 -2 -819 63 -943 62 -120 199 -222 331 -247 33 -6 346 -10 810 -10 825
0 816 -1 925 58 65 34 174 143 208 208 59 109 58 99 58 934 0 656 -2 774 -15
825 -43 164 -167 292 -342 352 -43 15 -128 17 -798 19 -412 1 -775 -2 -805 -6z
m309 -343 c55 -37 85 -103 77 -170 -16 -141 -177 -203 -287 -110 -40 34 -59
79 -59 140 0 138 152 217 269 140z m56 -1002 l0 -550 -150 0 -150 0 -3 553 -2
553 152 -3 153 -3 0 -550z m500 470 l-1 -80 56 56 c78 78 143 103 270 103 82
1 103 -3 150 -25 101 -48 160 -115 202 -230 22 -63 23 -73 23 -454 l0 -390
-150 0 -150 0 -5 325 c-5 315 -6 326 -28 372 -40 80 -114 116 -201 97 -59 -13
-95 -41 -128 -97 l-28 -47 -5 -325 -5 -325 -130 -3 c-71 -1 -140 0 -152 3
l-23 5 0 550 0 551 153 -3 152 -3 0 -80z"/>
</g>
</svg>
