<?xml version="1.0" standalone="no"?>
<!DOCTYPE svg PUBLIC "-//W3C//DTD SVG 20010904//EN"
 "http://www.w3.org/TR/2001/REC-SVG-20010904/DTD/svg10.dtd">
<svg version="1.0" xmlns="http://www.w3.org/2000/svg"
 width="147.000000pt" height="147.000000pt" viewBox="0 0 147.000000 147.000000"
 preserveAspectRatio="xMidYMid meet">

<g transform="translate(0.000000,147.000000) scale(0.100000,-0.100000)"
fill="#000000" stroke="none">
<path d="M576 1453 c-267 -57 -482 -260 -555 -523 -26 -93 -29 -285 -6 -374
37 -142 109 -260 222 -366 133 -124 304 -190 493 -190 121 0 215 22 330 77 81
39 108 59 186 137 76 77 98 106 137 186 64 130 81 201 81 335 0 132 -24 229
-86 347 -70 135 -214 268 -354 328 -132 57 -306 74 -448 43z m84 -443 c62 -82
116 -150 120 -150 4 0 69 68 145 150 134 146 138 150 178 150 l41 0 -40 -42
c-266 -283 -288 -309 -275 -331 8 -12 86 -118 175 -237 89 -118 166 -221 170
-227 6 -10 -22 -13 -127 -13 l-135 0 -123 165 -124 166 -55 -58 c-30 -32 -100
-107 -155 -166 -96 -104 -102 -108 -137 -105 l-37 3 170 183 c93 100 169 187
169 192 0 6 -60 90 -133 188 -73 97 -149 201 -170 230 l-39 52 135 0 135 0
112 -150z"/>
<path d="M409 1083 c6 -10 129 -175 273 -367 l263 -349 58 -1 c39 -1 56 3 53
10 -3 7 -124 172 -270 368 l-266 356 -60 0 c-55 0 -60 -2 -51 -17z"/>
</g>
</svg>
