<?xml version="1.0" standalone="no"?>
<!DOCTYPE svg PUBLIC "-//W3C//DTD SVG 20010904//EN"
 "http://www.w3.org/TR/2001/REC-SVG-20010904/DTD/svg10.dtd">
<svg version="1.0" xmlns="http://www.w3.org/2000/svg"
 width="448.000000pt" height="312.000000pt" viewBox="0 0 448.000000 312.000000"
 preserveAspectRatio="xMidYMid meet">

<g transform="translate(0.000000,312.000000) scale(0.100000,-0.100000)"
fill="#000000" stroke="none">
<path d="M1125 3109 c-582 -32 -746 -72 -893 -217 -118 -116 -162 -243 -204
-582 -21 -172 -22 -224 -22 -750 0 -526 1 -578 22 -750 42 -339 86 -466 204
-582 150 -148 305 -185 923 -218 247 -13 1923 -13 2170 0 619 33 778 71 925
220 82 83 121 157 153 290 56 233 77 513 77 1040 0 527 -21 807 -77 1040 -32
133 -71 207 -153 290 -147 149 -306 187 -925 220 -222 12 -1979 11 -2200 -1z
m1254 -1213 c314 -182 571 -333 571 -336 0 -5 -1126 -659 -1151 -668 -5 -2 -9
268 -9 668 0 400 4 670 9 668 5 -1 266 -151 580 -332z"/>
</g>
</svg>
